<svg xmlns="http://www.w3.org/2000/svg" xmlns:xlink="http://www.w3.org/1999/xlink" contentStyleType="text/css" height="1427px" preserveAspectRatio="none" style="width:2087px;height:1427px;background:#FFFFFF;" version="1.1" viewBox="0 0 2087 1427" width="2087px" zoomAndPan="magnify"><defs/><g><!--cluster CommunityEventsApp--><g id="cluster_CommunityEventsApp"><path d="M8.5,678.76 L181.5,678.76 A3.75,3.75 0 0 1 184,681.26 L191,701.0569 L979.5,701.0569 A2.5,2.5 0 0 1 982,703.5569 L982,1417.67 A2.5,2.5 0 0 1 979.5,1420.17 L8.5,1420.17 A2.5,2.5 0 0 1 6,1417.67 L6,681.26 A2.5,2.5 0 0 1 8.5,678.76 " fill="none" style="stroke:#000000;stroke-width:1.5;"/><line style="stroke:#000000;stroke-width:1.5;" x1="6" x2="191" y1="701.0569" y2="701.0569"/><text fill="#000000" font-family="sans-serif" font-size="14" font-weight="bold" lengthAdjust="spacing" textLength="172" x="10" y="693.7551">CommunityEventsApp</text></g><!--cluster Models--><g id="cluster_Models"><path d="M694.5,1052.72 L751.5,1052.72 A3.75,3.75 0 0 1 754,1055.22 L761,1075.0169 L955.5,1075.0169 A2.5,2.5 0 0 1 958,1077.5169 L958,1393.67 A2.5,2.5 0 0 1 955.5,1396.17 L694.5,1396.17 A2.5,2.5 0 0 1 692,1393.67 L692,1055.22 A2.5,2.5 0 0 1 694.5,1052.72 " fill="none" style="stroke:#000000;stroke-width:1.5;"/><line style="stroke:#000000;stroke-width:1.5;" x1="692" x2="761" y1="1075.0169" y2="1075.0169"/><text fill="#000000" font-family="sans-serif" font-size="14" font-weight="bold" lengthAdjust="spacing" textLength="56" x="696" y="1067.7151">Models</text></g><!--cluster Data--><g id="cluster_Data"><path d="M32.5,721.76 L68.5,721.76 A3.75,3.75 0 0 1 71,724.26 L78,744.0569 L665.5,744.0569 A2.5,2.5 0 0 1 668,746.5569 L668,1283.72 A2.5,2.5 0 0 1 665.5,1286.22 L32.5,1286.22 A2.5,2.5 0 0 1 30,1283.72 L30,724.26 A2.5,2.5 0 0 1 32.5,721.76 " fill="none" style="stroke:#000000;stroke-width:1.5;"/><line style="stroke:#000000;stroke-width:1.5;" x1="30" x2="78" y1="744.0569" y2="744.0569"/><text fill="#000000" font-family="sans-serif" font-size="14" font-weight="bold" lengthAdjust="spacing" textLength="35" x="34" y="736.7551">Data</text></g><!--cluster UI--><g id="cluster_UI"><path d="M1476.5,6 L1492.5,6 A3.75,3.75 0 0 1 1495,8.5 L1502,28.2969 L2077.5,28.2969 A2.5,2.5 0 0 1 2080,30.7969 L2080,1001.22 A2.5,2.5 0 0 1 2077.5,1003.72 L1476.5,1003.72 A2.5,2.5 0 0 1 1474,1001.22 L1474,8.5 A2.5,2.5 0 0 1 1476.5,6 " fill="none" style="stroke:#000000;stroke-width:1.5;"/><line style="stroke:#000000;stroke-width:1.5;" x1="1474" x2="1502" y1="28.2969" y2="28.2969"/><text fill="#000000" font-family="sans-serif" font-size="14" font-weight="bold" lengthAdjust="spacing" textLength="15" x="1478" y="20.9951">UI</text></g><!--cluster WinForms--><g id="cluster_WinForms"><path d="M1500.5,49 L1579.5,49 A3.75,3.75 0 0 1 1582,51.5 L1589,71.2969 L2053.5,71.2969 A2.5,2.5 0 0 1 2056,73.7969 L2056,977.22 A2.5,2.5 0 0 1 2053.5,979.72 L1500.5,979.72 A2.5,2.5 0 0 1 1498,977.22 L1498,51.5 A2.5,2.5 0 0 1 1500.5,49 " fill="none" style="stroke:#000000;stroke-width:1.5;"/><line style="stroke:#000000;stroke-width:1.5;" x1="1498" x2="1589" y1="71.2969" y2="71.2969"/><text fill="#000000" font-family="sans-serif" font-size="14" font-weight="bold" lengthAdjust="spacing" textLength="78" x="1502" y="63.9951">WinForms</text></g><!--cluster GMap--><g id="cluster_GMap"><path d="M1228.5,811.4 L1273.5,811.4 A3.75,3.75 0 0 1 1276,813.9 L1283,833.6969 L1315.5,833.6969 A2.5,2.5 0 0 1 1318,836.1969 L1318,907.9 A2.5,2.5 0 0 1 1315.5,910.4 L1228.5,910.4 A2.5,2.5 0 0 1 1226,907.9 L1226,813.9 A2.5,2.5 0 0 1 1228.5,811.4 " fill="none" style="stroke:#000000;stroke-width:1.5;"/><line style="stroke:#000000;stroke-width:1.5;" x1="1226" x2="1283" y1="833.6969" y2="833.6969"/><text fill="#000000" font-family="sans-serif" font-size="14" font-weight="bold" lengthAdjust="spacing" textLength="44" x="1230" y="826.3951">GMap</text></g><!--cluster Newtonsoft--><g id="cluster_Newtonsoft"><path d="M1344.5,811.4 L1437.5,811.4 A3.75,3.75 0 0 1 1440,813.9 L1447,833.6969 L1447.5,833.6969 A2.5,2.5 0 0 1 1450,836.1969 L1450,907.9 A2.5,2.5 0 0 1 1447.5,910.4 L1344.5,910.4 A2.5,2.5 0 0 1 1342,907.9 L1342,813.9 A2.5,2.5 0 0 1 1344.5,811.4 " fill="none" style="stroke:#000000;stroke-width:1.5;"/><line style="stroke:#000000;stroke-width:1.5;" x1="1342" x2="1447" y1="833.6969" y2="833.6969"/><text fill="#000000" font-family="sans-serif" font-size="14" font-weight="bold" lengthAdjust="spacing" textLength="92" x="1346" y="826.3951">Newtonsoft</text></g><!--cluster System--><g id="cluster_System"><path d="M1008.5,725.4 L1067.5,725.4 A3.75,3.75 0 0 1 1070,727.9 L1077,747.6969 L1199.5,747.6969 A2.5,2.5 0 0 1 1202,750.1969 L1202,955.9 A2.5,2.5 0 0 1 1199.5,958.4 L1008.5,958.4 A2.5,2.5 0 0 1 1006,955.9 L1006,727.9 A2.5,2.5 0 0 1 1008.5,725.4 " fill="none" style="stroke:#000000;stroke-width:1.5;"/><line style="stroke:#000000;stroke-width:1.5;" x1="1006" x2="1077" y1="747.6969" y2="747.6969"/><text fill="#000000" font-family="sans-serif" font-size="14" font-weight="bold" lengthAdjust="spacing" textLength="58" x="1010" y="740.3951">System</text></g><!--cluster Windows--><g id="cluster_Windows"><path d="M1032.5,768.4 L1105.5,768.4 A3.75,3.75 0 0 1 1108,770.9 L1115,790.6969 L1175.5,790.6969 A2.5,2.5 0 0 1 1178,793.1969 L1178,931.9 A2.5,2.5 0 0 1 1175.5,934.4 L1032.5,934.4 A2.5,2.5 0 0 1 1030,931.9 L1030,770.9 A2.5,2.5 0 0 1 1032.5,768.4 " fill="none" style="stroke:#000000;stroke-width:1.5;"/><line style="stroke:#000000;stroke-width:1.5;" x1="1030" x2="1115" y1="790.6969" y2="790.6969"/><text fill="#000000" font-family="sans-serif" font-size="14" font-weight="bold" lengthAdjust="spacing" textLength="72" x="1034" y="783.3951">Windows</text></g><!--cluster Forms--><g id="cluster_Forms"><path d="M1056.5,811.4 L1106.5,811.4 A3.75,3.75 0 0 1 1109,813.9 L1116,833.6969 L1151.5,833.6969 A2.5,2.5 0 0 1 1154,836.1969 L1154,907.9 A2.5,2.5 0 0 1 1151.5,910.4 L1056.5,910.4 A2.5,2.5 0 0 1 1054,907.9 L1054,813.9 A2.5,2.5 0 0 1 1056.5,811.4 " fill="none" style="stroke:#000000;stroke-width:1.5;"/><line style="stroke:#000000;stroke-width:1.5;" x1="1054" x2="1116" y1="833.6969" y2="833.6969"/><text fill="#000000" font-family="sans-serif" font-size="14" font-weight="bold" lengthAdjust="spacing" textLength="49" x="1058" y="826.3951">Forms</text></g><!--class EventItem--><g id="elem_EventItem"><rect codeLine="4" fill="#F1F1F1" height="292.4531" id="EventItem" rx="2.5" ry="2.5" style="stroke:#181818;stroke-width:0.5;" width="234" x="708" y="1087.72"/><ellipse cx="786.25" cy="1103.72" fill="#ADD1B2" rx="11" ry="11" style="stroke:#181818;stroke-width:1.0;"/><path d="M789.2188,1109.3606 Q788.6406,1109.6575 788,1109.7981 Q787.3594,1109.9544 786.6563,1109.9544 Q784.1563,1109.9544 782.8281,1108.3138 Q781.5156,1106.6575 781.5156,1103.5325 Q781.5156,1100.4075 782.8281,1098.7513 Q784.1563,1097.095 786.6563,1097.095 Q787.3594,1097.095 788,1097.2513 Q788.6563,1097.4075 789.2188,1097.7044 L789.2188,1100.4231 Q788.5938,1099.845 788,1099.5794 Q787.4063,1099.2981 786.7813,1099.2981 Q785.4375,1099.2981 784.75,1100.3763 Q784.0625,1101.4388 784.0625,1103.5325 Q784.0625,1105.6263 784.75,1106.7044 Q785.4375,1107.7669 786.7813,1107.7669 Q787.4063,1107.7669 788,1107.5013 Q788.5938,1107.22 789.2188,1106.6419 L789.2188,1109.3606 Z " fill="#000000"/><text fill="#000000" font-family="sans-serif" font-size="14" lengthAdjust="spacing" textLength="69" x="806.75" y="1108.5667">EventItem</text><line style="stroke:#181818;stroke-width:0.5;" x1="709" x2="941" y1="1119.72" y2="1119.72"/><ellipse cx="719" cy="1133.3684" fill="none" rx="3" ry="3" style="stroke:#038048;stroke-width:1.0;"/><text fill="#000000" font-family="sans-serif" font-size="14" lengthAdjust="spacing" textLength="103" x="728" y="1136.7151">EventId : string</text><ellipse cx="719" cy="1149.6653" fill="none" rx="3" ry="3" style="stroke:#038048;stroke-width:1.0;"/><text fill="#000000" font-family="sans-serif" font-size="14" lengthAdjust="spacing" textLength="101" x="728" y="1153.012">Source : string</text><ellipse cx="719" cy="1165.9622" fill="none" rx="3" ry="3" style="stroke:#038048;stroke-width:1.0;"/><text fill="#000000" font-family="sans-serif" font-size="14" lengthAdjust="spacing" textLength="81" x="728" y="1169.3089">Title : string</text><ellipse cx="719" cy="1182.2591" fill="none" rx="3" ry="3" style="stroke:#038048;stroke-width:1.0;"/><text fill="#000000" font-family="sans-serif" font-size="14" lengthAdjust="spacing" textLength="131" x="728" y="1185.6057">Description : string</text><ellipse cx="719" cy="1198.5559" fill="none" rx="3" ry="3" style="stroke:#038048;stroke-width:1.0;"/><text fill="#000000" font-family="sans-serif" font-size="14" lengthAdjust="spacing" textLength="114" x="728" y="1201.9026">Category : string</text><ellipse cx="719" cy="1214.8528" fill="none" rx="3" ry="3" style="stroke:#038048;stroke-width:1.0;"/><text fill="#000000" font-family="sans-serif" font-size="14" lengthAdjust="spacing" textLength="146" x="728" y="1218.1995">StartTime : DateTime</text><ellipse cx="719" cy="1231.1497" fill="none" rx="3" ry="3" style="stroke:#038048;stroke-width:1.0;"/><text fill="#000000" font-family="sans-serif" font-size="14" lengthAdjust="spacing" textLength="208" x="728" y="1234.4964">EndTime : DateTime [nullable]</text><ellipse cx="719" cy="1247.4466" fill="none" rx="3" ry="3" style="stroke:#038048;stroke-width:1.0;"/><text fill="#000000" font-family="sans-serif" font-size="14" lengthAdjust="spacing" textLength="137" x="728" y="1250.7932">VenueName : string</text><ellipse cx="719" cy="1263.7434" fill="none" rx="3" ry="3" style="stroke:#038048;stroke-width:1.0;"/><text fill="#000000" font-family="sans-serif" font-size="14" lengthAdjust="spacing" textLength="109" x="728" y="1267.0901">Address : string</text><ellipse cx="719" cy="1280.0403" fill="none" rx="3" ry="3" style="stroke:#038048;stroke-width:1.0;"/><text fill="#000000" font-family="sans-serif" font-size="14" lengthAdjust="spacing" textLength="77" x="728" y="1283.387">City : string</text><ellipse cx="719" cy="1296.3372" fill="none" rx="3" ry="3" style="stroke:#038048;stroke-width:1.0;"/><text fill="#000000" font-family="sans-serif" font-size="14" lengthAdjust="spacing" textLength="88" x="728" y="1299.6839">State : string</text><ellipse cx="719" cy="1312.6341" fill="none" rx="3" ry="3" style="stroke:#038048;stroke-width:1.0;"/><text fill="#000000" font-family="sans-serif" font-size="14" lengthAdjust="spacing" textLength="74" x="728" y="1315.9807">Zip : string</text><ellipse cx="719" cy="1328.9309" fill="none" rx="3" ry="3" style="stroke:#038048;stroke-width:1.0;"/><text fill="#000000" font-family="sans-serif" font-size="14" lengthAdjust="spacing" textLength="183" x="728" y="1332.2776">Latitude : double [nullable]</text><ellipse cx="719" cy="1345.2278" fill="none" rx="3" ry="3" style="stroke:#038048;stroke-width:1.0;"/><text fill="#000000" font-family="sans-serif" font-size="14" lengthAdjust="spacing" textLength="197" x="728" y="1348.5745">Longitude : double [nullable]</text><ellipse cx="719" cy="1361.5247" fill="none" rx="3" ry="3" style="stroke:#038048;stroke-width:1.0;"/><text fill="#000000" font-family="sans-serif" font-size="14" lengthAdjust="spacing" textLength="70" x="728" y="1364.8714">Url : string</text><line style="stroke:#181818;stroke-width:0.5;" x1="709" x2="941" y1="1372.1731" y2="1372.1731"/></g><!--class Db--><g id="elem_Db"><rect codeLine="24" fill="#F1F1F1" height="72.5625" id="Db" rx="2.5" ry="2.5" style="stroke:#181818;stroke-width:0.5;" width="188" x="255" y="1197.66"/><ellipse cx="322.25" cy="1217.7928" fill="#ADD1B2" rx="11" ry="11" style="stroke:#181818;stroke-width:1.0;"/><path d="M325.2188,1223.4334 Q324.6406,1223.7303 324,1223.8709 Q323.3594,1224.0272 322.6563,1224.0272 Q320.1563,1224.0272 318.8281,1222.3866 Q317.5156,1220.7303 317.5156,1217.6053 Q317.5156,1214.4803 318.8281,1212.8241 Q320.1563,1211.1678 322.6563,1211.1678 Q323.3594,1211.1678 324,1211.3241 Q324.6563,1211.4803 325.2188,1211.7772 L325.2188,1214.4959 Q324.5938,1213.9178 324,1213.6522 Q323.4063,1213.3709 322.7813,1213.3709 Q321.4375,1213.3709 320.75,1214.4491 Q320.0625,1215.5116 320.0625,1217.6053 Q320.0625,1219.6991 320.75,1220.7772 Q321.4375,1221.8397 322.7813,1221.8397 Q323.4063,1221.8397 324,1221.5741 Q324.5938,1221.2928 325.2188,1220.7147 L325.2188,1223.4334 Z " fill="#000000"/><text fill="#000000" font-family="sans-serif" font-size="12" font-style="italic" lengthAdjust="spacing" textLength="49" x="340.75" y="1213.7987">&#171;static&#187;</text><text fill="#000000" font-family="sans-serif" font-size="14" lengthAdjust="spacing" textLength="20" x="355.25" y="1229.6239">Db</text><line style="stroke:#181818;stroke-width:0.5;" x1="256" x2="442" y1="1237.9256" y2="1237.9256"/><line style="stroke:#181818;stroke-width:0.5;" x1="256" x2="442" y1="1245.9256" y2="1245.9256"/><ellipse cx="266" cy="1259.5741" fill="#84BE84" rx="3" ry="3" style="stroke:#038048;stroke-width:1.0;"/><text fill="#000000" font-family="sans-serif" font-size="14" lengthAdjust="spacing" textLength="162" x="275" y="1262.9207">Open() : SqlConnection</text></g><!--class EventRepository--><g id="elem_EventRepository"><rect codeLine="28" fill="#F1F1F1" height="227.2656" id="EventRepository" rx="2.5" ry="2.5" style="stroke:#181818;stroke-width:0.5;" width="606" x="46" y="756.76"/><ellipse cx="288.25" cy="772.76" fill="#ADD1B2" rx="11" ry="11" style="stroke:#181818;stroke-width:1.0;"/><path d="M291.2188,778.4006 Q290.6406,778.6975 290,778.8381 Q289.3594,778.9944 288.6563,778.9944 Q286.1563,778.9944 284.8281,777.3538 Q283.5156,775.6975 283.5156,772.5725 Q283.5156,769.4475 284.8281,767.7913 Q286.1563,766.135 288.6563,766.135 Q289.3594,766.135 290,766.2913 Q290.6563,766.4475 291.2188,766.7444 L291.2188,769.4631 Q290.5938,768.885 290,768.6194 Q289.4063,768.3381 288.7813,768.3381 Q287.4375,768.3381 286.75,769.4163 Q286.0625,770.4788 286.0625,772.5725 Q286.0625,774.6663 286.75,775.7444 Q287.4375,776.8069 288.7813,776.8069 Q289.4063,776.8069 290,776.5413 Q290.5938,776.26 291.2188,775.6819 L291.2188,778.4006 Z " fill="#000000"/><text fill="#000000" font-family="sans-serif" font-size="14" lengthAdjust="spacing" textLength="113" x="308.75" y="777.6067">EventRepository</text><line style="stroke:#181818;stroke-width:0.5;" x1="47" x2="651" y1="788.76" y2="788.76"/><rect fill="none" height="6" style="stroke:#C82930;stroke-width:1.0;" width="6" x="54" y="799.4084"/><text fill="#000000" font-family="sans-serif" font-size="14" lengthAdjust="spacing" textLength="95" x="66" y="805.7551">userId : string</text><rect fill="none" height="6" style="stroke:#C82930;stroke-width:1.0;" width="6" x="54" y="815.7053"/><text fill="#000000" font-family="sans-serif" font-size="14" lengthAdjust="spacing" textLength="124" x="66" y="822.052">_latRegex : Regex</text><rect fill="none" height="6" style="stroke:#C82930;stroke-width:1.0;" width="6" x="54" y="832.0022"/><text fill="#000000" font-family="sans-serif" font-size="14" lengthAdjust="spacing" textLength="129" x="66" y="838.3489">_lonRegex : Regex</text><line style="stroke:#181818;stroke-width:0.5;" x1="47" x2="651" y1="845.6506" y2="845.6506"/><ellipse cx="57" cy="859.2991" fill="#84BE84" rx="3" ry="3" style="stroke:#038048;stroke-width:1.0;"/><text fill="#000000" font-family="sans-serif" font-size="14" lengthAdjust="spacing" textLength="123" x="66" y="862.6457">EventRepository()</text><rect fill="#F24D5C" height="6" style="stroke:#C82930;stroke-width:1.0;" width="6" x="54" y="872.5959"/><text fill="#000000" font-family="sans-serif" font-size="14" lengthAdjust="spacing" textLength="181" x="66" y="878.9426">GetOrCreateUser() : string</text><ellipse cx="57" cy="891.8928" fill="#84BE84" rx="3" ry="3" style="stroke:#038048;stroke-width:1.0;"/><text fill="#000000" font-family="sans-serif" font-size="14" lengthAdjust="spacing" textLength="329" x="66" y="895.2395">GetEventsForCurrentMonth() : List&lt;EventItem&gt;</text><ellipse cx="57" cy="908.1897" fill="#84BE84" rx="3" ry="3" style="stroke:#038048;stroke-width:1.0;"/><text fill="#000000" font-family="sans-serif" font-size="14" lengthAdjust="spacing" textLength="383" x="66" y="911.5364">GetFavoriteEventsForCurrentMonth() : List&lt;EventItem&gt;</text><ellipse cx="57" cy="924.4866" fill="#84BE84" rx="3" ry="3" style="stroke:#038048;stroke-width:1.0;"/><text fill="#000000" font-family="sans-serif" font-size="14" lengthAdjust="spacing" textLength="221" x="66" y="927.8332">IsFavorite(eventId : string) : bool</text><ellipse cx="57" cy="940.7834" fill="#84BE84" rx="3" ry="3" style="stroke:#038048;stroke-width:1.0;"/><text fill="#000000" font-family="sans-serif" font-size="14" lengthAdjust="spacing" textLength="256" x="66" y="944.1301">ToggleFavorite(eventId : string) : void</text><ellipse cx="57" cy="957.0803" fill="#84BE84" rx="3" ry="3" style="stroke:#038048;stroke-width:1.0;"/><text fill="#000000" font-family="sans-serif" font-size="14" lengthAdjust="spacing" textLength="580" x="66" y="960.427">InsertEvent(title, category, start, end, venue, address, city, state, zip, desc, url) : void</text><rect fill="#F24D5C" height="6" style="stroke:#C82930;stroke-width:1.0;" width="6" x="54" y="970.3772"/><text fill="#000000" font-family="sans-serif" font-size="14" lengthAdjust="spacing" textLength="449" x="66" y="976.7239">TryGeocode(address, city, state, zip) : (decimal? lat, decimal? lon)</text></g><!--class Program--><g id="elem_Program"><rect codeLine="44" fill="#F1F1F1" height="64.2969" id="Program" rx="2.5" ry="2.5" style="stroke:#181818;stroke-width:0.5;" width="109" x="1787.5" y="120.72"/><ellipse cx="1811.05" cy="136.72" fill="#ADD1B2" rx="11" ry="11" style="stroke:#181818;stroke-width:1.0;"/><path d="M1814.0188,142.3606 Q1813.4406,142.6575 1812.8,142.7981 Q1812.1594,142.9544 1811.4563,142.9544 Q1808.9563,142.9544 1807.6281,141.3138 Q1806.3156,139.6575 1806.3156,136.5325 Q1806.3156,133.4075 1807.6281,131.7513 Q1808.9563,130.095 1811.4563,130.095 Q1812.1594,130.095 1812.8,130.2513 Q1813.4563,130.4075 1814.0188,130.7044 L1814.0188,133.4231 Q1813.3938,132.845 1812.8,132.5794 Q1812.2063,132.2981 1811.5813,132.2981 Q1810.2375,132.2981 1809.55,133.3763 Q1808.8625,134.4388 1808.8625,136.5325 Q1808.8625,138.6263 1809.55,139.7044 Q1810.2375,140.7669 1811.5813,140.7669 Q1812.2063,140.7669 1812.8,140.5013 Q1813.3938,140.22 1814.0188,139.6419 L1814.0188,142.3606 Z " fill="#000000"/><text fill="#000000" font-family="sans-serif" font-size="14" lengthAdjust="spacing" textLength="58" x="1826.95" y="141.5667">Program</text><line style="stroke:#181818;stroke-width:0.5;" x1="1788.5" x2="1895.5" y1="152.72" y2="152.72"/><line style="stroke:#181818;stroke-width:0.5;" x1="1788.5" x2="1895.5" y1="160.72" y2="160.72"/><ellipse cx="1798.5" cy="174.3684" fill="#84BE84" rx="3" ry="3" style="stroke:#038048;stroke-width:1.0;"/><text fill="#000000" font-family="sans-serif" font-size="14" lengthAdjust="spacing" textLength="83" x="1807.5" y="177.7151">Main() : void</text></g><!--class FormList--><g id="elem_FormList"><rect codeLine="48" fill="#F1F1F1" height="317.0156" id="FormList" rx="2.5" ry="2.5" style="stroke:#181818;stroke-width:0.5;" width="422" x="1514" y="298.75"/><ellipse cx="1691.75" cy="318.8828" fill="#ADD1B2" rx="11" ry="11" style="stroke:#181818;stroke-width:1.0;"/><path d="M1694.7188,324.5234 Q1694.1406,324.8203 1693.5,324.9609 Q1692.8594,325.1172 1692.1563,325.1172 Q1689.6563,325.1172 1688.3281,323.4766 Q1687.0156,321.8203 1687.0156,318.6953 Q1687.0156,315.5703 1688.3281,313.9141 Q1689.6563,312.2578 1692.1563,312.2578 Q1692.8594,312.2578 1693.5,312.4141 Q1694.1563,312.5703 1694.7188,312.8672 L1694.7188,315.5859 Q1694.0938,315.0078 1693.5,314.7422 Q1692.9063,314.4609 1692.2813,314.4609 Q1690.9375,314.4609 1690.25,315.5391 Q1689.5625,316.6016 1689.5625,318.6953 Q1689.5625,320.7891 1690.25,321.8672 Q1690.9375,322.9297 1692.2813,322.9297 Q1692.9063,322.9297 1693.5,322.6641 Q1694.0938,322.3828 1694.7188,321.8047 L1694.7188,324.5234 Z " fill="#000000"/><text fill="#000000" font-family="sans-serif" font-size="12" font-style="italic" lengthAdjust="spacing" textLength="45" x="1718.75" y="314.8887">&#171;Form&#187;</text><text fill="#000000" font-family="sans-serif" font-size="14" lengthAdjust="spacing" textLength="58" x="1712.25" y="330.7139">FormList</text><line style="stroke:#181818;stroke-width:0.5;" x1="1515" x2="1935" y1="339.0156" y2="339.0156"/><rect fill="none" height="6" style="stroke:#C82930;stroke-width:1.0;" width="6" x="1522" y="349.6641"/><text fill="#000000" font-family="sans-serif" font-size="14" lengthAdjust="spacing" textLength="165" x="1534" y="356.0107">_repo : EventRepository</text><rect fill="none" height="6" style="stroke:#C82930;stroke-width:1.0;" width="6" x="1522" y="365.9609"/><text fill="#000000" font-family="sans-serif" font-size="14" lengthAdjust="spacing" textLength="133" x="1534" y="372.3076">map : GMapControl</text><rect fill="none" height="6" style="stroke:#C82930;stroke-width:1.0;" width="6" x="1522" y="382.2578"/><text fill="#000000" font-family="sans-serif" font-size="14" lengthAdjust="spacing" textLength="201" x="1534" y="388.6045">markerOverlay : GMapOverlay</text><rect fill="none" height="6" style="stroke:#C82930;stroke-width:1.0;" width="6" x="1522" y="398.5547"/><text fill="#000000" font-family="sans-serif" font-size="14" lengthAdjust="spacing" textLength="195" x="1534" y="404.9014">radiusOverlay : GMapOverlay</text><rect fill="none" height="6" style="stroke:#C82930;stroke-width:1.0;" width="6" x="1522" y="414.8516"/><text fill="#000000" font-family="sans-serif" font-size="14" lengthAdjust="spacing" textLength="171" x="1534" y="421.1982">currentEvent : EventItem</text><rect fill="none" height="6" style="stroke:#C82930;stroke-width:1.0;" width="6" x="1522" y="431.1484"/><text fill="#000000" font-family="sans-serif" font-size="14" lengthAdjust="spacing" textLength="235" x="1534" y="437.4951">_lastGridEvents : List&lt;EventItem&gt;</text><rect fill="none" height="6" style="stroke:#C82930;stroke-width:1.0;" width="6" x="1522" y="447.4453"/><text fill="#000000" font-family="sans-serif" font-size="14" lengthAdjust="spacing" textLength="396" x="1534" y="453.792">geoCache : Dictionary&lt;string, Tuple&lt;decimal,decimal&gt;&gt;</text><rect fill="none" height="6" style="stroke:#C82930;stroke-width:1.0;" width="6" x="1522" y="463.7422"/><text fill="#000000" font-family="sans-serif" font-size="14" lengthAdjust="spacing" textLength="133" x="1534" y="470.0889">_centerLat : double</text><rect fill="none" height="6" style="stroke:#C82930;stroke-width:1.0;" width="6" x="1522" y="480.0391"/><text fill="#000000" font-family="sans-serif" font-size="14" lengthAdjust="spacing" textLength="138" x="1534" y="486.3857">_centerLon : double</text><rect fill="none" height="6" style="stroke:#C82930;stroke-width:1.0;" width="6" x="1522" y="496.3359"/><text fill="#000000" font-family="sans-serif" font-size="14" lengthAdjust="spacing" textLength="145" x="1534" y="502.6826">_radiusMiles : double</text><line style="stroke:#181818;stroke-width:0.5;" x1="1515" x2="1935" y1="509.9844" y2="509.9844"/><ellipse cx="1525" cy="523.6328" fill="#84BE84" rx="3" ry="3" style="stroke:#038048;stroke-width:1.0;"/><text fill="#000000" font-family="sans-serif" font-size="14" lengthAdjust="spacing" textLength="68" x="1534" y="526.9795">FormList()</text><ellipse cx="1525" cy="539.9297" fill="#84BE84" rx="3" ry="3" style="stroke:#038048;stroke-width:1.0;"/><text fill="#000000" font-family="sans-serif" font-size="14" lengthAdjust="spacing" textLength="130" x="1534" y="543.2764">BuildLayout() : void</text><ellipse cx="1525" cy="556.2266" fill="#84BE84" rx="3" ry="3" style="stroke:#038048;stroke-width:1.0;"/><text fill="#000000" font-family="sans-serif" font-size="14" lengthAdjust="spacing" textLength="127" x="1534" y="559.5732">ReloadGrid() : void</text><ellipse cx="1525" cy="572.5234" fill="#84BE84" rx="3" ry="3" style="stroke:#038048;stroke-width:1.0;"/><text fill="#000000" font-family="sans-serif" font-size="14" lengthAdjust="spacing" textLength="132" x="1534" y="575.8701">RedrawMap() : void</text><ellipse cx="1525" cy="588.8203" fill="#84BE84" rx="3" ry="3" style="stroke:#038048;stroke-width:1.0;"/><text fill="#000000" font-family="sans-serif" font-size="14" lengthAdjust="spacing" textLength="301" x="1534" y="592.167">ApplyDistanceButton_Click(sender, e) : void</text><ellipse cx="1525" cy="605.1172" fill="#84BE84" rx="3" ry="3" style="stroke:#038048;stroke-width:1.0;"/><text fill="#000000" font-family="sans-serif" font-size="14" lengthAdjust="spacing" textLength="233" x="1534" y="608.4639">Map_OnMarkerClick(item, e) : void</text></g><!--class FormAddEvent--><g id="elem_FormAddEvent"><rect codeLine="67" fill="#F1F1F1" height="137.75" id="FormAddEvent" rx="2.5" ry="2.5" style="stroke:#181818;stroke-width:0.5;" width="239" x="1513.5" y="84"/><ellipse cx="1578.25" cy="104.1328" fill="#ADD1B2" rx="11" ry="11" style="stroke:#181818;stroke-width:1.0;"/><path d="M1581.2188,109.7734 Q1580.6406,110.0703 1580,110.2109 Q1579.3594,110.3672 1578.6563,110.3672 Q1576.1563,110.3672 1574.8281,108.7266 Q1573.5156,107.0703 1573.5156,103.9453 Q1573.5156,100.8203 1574.8281,99.1641 Q1576.1563,97.5078 1578.6563,97.5078 Q1579.3594,97.5078 1580,97.6641 Q1580.6563,97.8203 1581.2188,98.1172 L1581.2188,100.8359 Q1580.5938,100.2578 1580,99.9922 Q1579.4063,99.7109 1578.7813,99.7109 Q1577.4375,99.7109 1576.75,100.7891 Q1576.0625,101.8516 1576.0625,103.9453 Q1576.0625,106.0391 1576.75,107.1172 Q1577.4375,108.1797 1578.7813,108.1797 Q1579.4063,108.1797 1580,107.9141 Q1580.5938,107.6328 1581.2188,107.0547 L1581.2188,109.7734 Z " fill="#000000"/><text fill="#000000" font-family="sans-serif" font-size="12" font-style="italic" lengthAdjust="spacing" textLength="45" x="1626.75" y="100.1387">&#171;Form&#187;</text><text fill="#000000" font-family="sans-serif" font-size="14" lengthAdjust="spacing" textLength="101" x="1598.75" y="115.9639">FormAddEvent</text><line style="stroke:#181818;stroke-width:0.5;" x1="1514.5" x2="1751.5" y1="124.2656" y2="124.2656"/><rect fill="none" height="6" style="stroke:#C82930;stroke-width:1.0;" width="6" x="1521.5" y="134.9141"/><text fill="#000000" font-family="sans-serif" font-size="14" lengthAdjust="spacing" textLength="158" x="1533.5" y="141.2607">repo : EventRepository</text><line style="stroke:#181818;stroke-width:0.5;" x1="1514.5" x2="1751.5" y1="148.5625" y2="148.5625"/><ellipse cx="1524.5" cy="162.2109" fill="#84BE84" rx="3" ry="3" style="stroke:#038048;stroke-width:1.0;"/><text fill="#000000" font-family="sans-serif" font-size="14" lengthAdjust="spacing" textLength="111" x="1533.5" y="165.5576">FormAddEvent()</text><rect fill="#F24D5C" height="6" style="stroke:#C82930;stroke-width:1.0;" width="6" x="1521.5" y="175.5078"/><text fill="#000000" font-family="sans-serif" font-size="14" lengthAdjust="spacing" textLength="136" x="1533.5" y="181.8545">WireUpLogic() : void</text><rect fill="#F24D5C" height="6" style="stroke:#C82930;stroke-width:1.0;" width="6" x="1521.5" y="191.8047"/><text fill="#000000" font-family="sans-serif" font-size="14" lengthAdjust="spacing" textLength="213" x="1533.5" y="198.1514">SaveBtn_Click(sender, e) : void</text><rect fill="#F24D5C" height="6" style="stroke:#C82930;stroke-width:1.0;" width="6" x="1521.5" y="208.1016"/><text fill="#000000" font-family="sans-serif" font-size="14" lengthAdjust="spacing" textLength="195" x="1533.5" y="214.4482">Require(control, label) : bool</text></g><!--class CalendarForm--><g id="elem_CalendarForm"><rect codeLine="75" fill="#F1F1F1" height="186.6406" id="CalendarForm" rx="2.5" ry="2.5" style="stroke:#181818;stroke-width:0.5;" width="526" x="1514" y="777.08"/><ellipse cx="1724.75" cy="797.2128" fill="#ADD1B2" rx="11" ry="11" style="stroke:#181818;stroke-width:1.0;"/><path d="M1727.7188,802.8534 Q1727.1406,803.1503 1726.5,803.2909 Q1725.8594,803.4472 1725.1563,803.4472 Q1722.6563,803.4472 1721.3281,801.8066 Q1720.0156,800.1503 1720.0156,797.0253 Q1720.0156,793.9003 1721.3281,792.2441 Q1722.6563,790.5878 1725.1563,790.5878 Q1725.8594,790.5878 1726.5,790.7441 Q1727.1563,790.9003 1727.7188,791.1972 L1727.7188,793.9159 Q1727.0938,793.3378 1726.5,793.0722 Q1725.9063,792.7909 1725.2813,792.7909 Q1723.9375,792.7909 1723.25,793.8691 Q1722.5625,794.9316 1722.5625,797.0253 Q1722.5625,799.1191 1723.25,800.1972 Q1723.9375,801.2597 1725.2813,801.2597 Q1725.9063,801.2597 1726.5,800.9941 Q1727.0938,800.7128 1727.7188,800.1347 L1727.7188,802.8534 Z " fill="#000000"/><text fill="#000000" font-family="sans-serif" font-size="12" font-style="italic" lengthAdjust="spacing" textLength="45" x="1770.75" y="793.2187">&#171;Form&#187;</text><text fill="#000000" font-family="sans-serif" font-size="14" lengthAdjust="spacing" textLength="96" x="1745.25" y="809.0439">CalendarForm</text><line style="stroke:#181818;stroke-width:0.5;" x1="1515" x2="2039" y1="817.3456" y2="817.3456"/><rect fill="none" height="6" style="stroke:#C82930;stroke-width:1.0;" width="6" x="1522" y="827.9941"/><text fill="#000000" font-family="sans-serif" font-size="14" lengthAdjust="spacing" textLength="176" x="1534" y="834.3407">events : List&lt;EventItem&gt;</text><rect fill="none" height="6" style="stroke:#C82930;stroke-width:1.0;" width="6" x="1522" y="844.2909"/><text fill="#000000" font-family="sans-serif" font-size="14" lengthAdjust="spacing" textLength="108" x="1534" y="850.6376">dragBox : Panel</text><rect fill="none" height="6" style="stroke:#C82930;stroke-width:1.0;" width="6" x="1522" y="860.5878"/><text fill="#000000" font-family="sans-serif" font-size="14" lengthAdjust="spacing" textLength="111" x="1534" y="866.9345">dragOffsetY : int</text><rect fill="none" height="6" style="stroke:#C82930;stroke-width:1.0;" width="6" x="1522" y="876.8847"/><text fill="#000000" font-family="sans-serif" font-size="14" lengthAdjust="spacing" textLength="108" x="1534" y="883.2314">HourHeight : int</text><line style="stroke:#181818;stroke-width:0.5;" x1="1515" x2="2039" y1="890.5331" y2="890.5331"/><ellipse cx="1525" cy="904.1816" fill="#84BE84" rx="3" ry="3" style="stroke:#038048;stroke-width:1.0;"/><text fill="#000000" font-family="sans-serif" font-size="14" lengthAdjust="spacing" textLength="252" x="1534" y="907.5282">CalendarForm(evs : List&lt;EventItem])</text><rect fill="#F24D5C" height="6" style="stroke:#C82930;stroke-width:1.0;" width="6" x="1522" y="917.4784"/><text fill="#000000" font-family="sans-serif" font-size="14" lengthAdjust="spacing" textLength="232" x="1534" y="923.8251">RenderDay(day : DateTime) : void</text><rect fill="#F24D5C" height="6" style="stroke:#C82930;stroke-width:1.0;" width="6" x="1522" y="933.7753"/><text fill="#000000" font-family="sans-serif" font-size="14" lengthAdjust="spacing" textLength="363" x="1534" y="940.122">DrawEventsWithOverlap(list : List&lt;EventItem&gt;) : void</text><rect fill="#F24D5C" height="6" style="stroke:#C82930;stroke-width:1.0;" width="6" x="1522" y="950.0722"/><text fill="#000000" font-family="sans-serif" font-size="14" lengthAdjust="spacing" textLength="500" x="1534" y="956.4189">CreateEventBlock(ev : EventItem, column : int, totalColumns : int) : Panel</text></g><!--class NET--><g id="elem_NET"><rect fill="#F1F1F1" height="48" id="NET" rx="2.5" ry="2.5" style="stroke:#181818;stroke-width:0.5;" width="60" x="1242" y="846.4"/><ellipse cx="1257" cy="862.4" fill="#ADD1B2" rx="11" ry="11" style="stroke:#181818;stroke-width:1.0;"/><path d="M1259.9688,868.0406 Q1259.3906,868.3375 1258.75,868.4781 Q1258.1094,868.6344 1257.4063,868.6344 Q1254.9063,868.6344 1253.5781,866.9938 Q1252.2656,865.3375 1252.2656,862.2125 Q1252.2656,859.0875 1253.5781,857.4313 Q1254.9063,855.775 1257.4063,855.775 Q1258.1094,855.775 1258.75,855.9313 Q1259.4063,856.0875 1259.9688,856.3844 L1259.9688,859.1031 Q1259.3438,858.525 1258.75,858.2594 Q1258.1563,857.9781 1257.5313,857.9781 Q1256.1875,857.9781 1255.5,859.0563 Q1254.8125,860.1188 1254.8125,862.2125 Q1254.8125,864.3063 1255.5,865.3844 Q1256.1875,866.4469 1257.5313,866.4469 Q1258.1563,866.4469 1258.75,866.1813 Q1259.3438,865.9 1259.9688,865.3219 L1259.9688,868.0406 Z " fill="#000000"/><text fill="#000000" font-family="sans-serif" font-size="14" lengthAdjust="spacing" textLength="28" x="1271" y="867.2467">NET</text><line style="stroke:#181818;stroke-width:0.5;" x1="1243" x2="1301" y1="878.4" y2="878.4"/><line style="stroke:#181818;stroke-width:0.5;" x1="1243" x2="1301" y1="886.4" y2="886.4"/></g><!--class Json--><g id="elem_Json"><rect fill="#F1F1F1" height="48" id="Json" rx="2.5" ry="2.5" style="stroke:#181818;stroke-width:0.5;" width="61" x="1373.5" y="846.4"/><ellipse cx="1388.5" cy="862.4" fill="#ADD1B2" rx="11" ry="11" style="stroke:#181818;stroke-width:1.0;"/><path d="M1391.4688,868.0406 Q1390.8906,868.3375 1390.25,868.4781 Q1389.6094,868.6344 1388.9063,868.6344 Q1386.4063,868.6344 1385.0781,866.9938 Q1383.7656,865.3375 1383.7656,862.2125 Q1383.7656,859.0875 1385.0781,857.4313 Q1386.4063,855.775 1388.9063,855.775 Q1389.6094,855.775 1390.25,855.9313 Q1390.9063,856.0875 1391.4688,856.3844 L1391.4688,859.1031 Q1390.8438,858.525 1390.25,858.2594 Q1389.6563,857.9781 1389.0313,857.9781 Q1387.6875,857.9781 1387,859.0563 Q1386.3125,860.1188 1386.3125,862.2125 Q1386.3125,864.3063 1387,865.3844 Q1387.6875,866.4469 1389.0313,866.4469 Q1389.6563,866.4469 1390.25,866.1813 Q1390.8438,865.9 1391.4688,865.3219 L1391.4688,868.0406 Z " fill="#000000"/><text fill="#000000" font-family="sans-serif" font-size="14" lengthAdjust="spacing" textLength="29" x="1402.5" y="867.2467">Json</text><line style="stroke:#181818;stroke-width:0.5;" x1="1374.5" x2="1433.5" y1="878.4" y2="878.4"/><line style="stroke:#181818;stroke-width:0.5;" x1="1374.5" x2="1433.5" y1="886.4" y2="886.4"/></g><!--class Form--><g id="elem_Form"><rect fill="#F1F1F1" height="48" id="Form" rx="2.5" ry="2.5" style="stroke:#181818;stroke-width:0.5;" width="67" x="1070.5" y="846.4"/><ellipse cx="1085.5" cy="862.4" fill="#ADD1B2" rx="11" ry="11" style="stroke:#181818;stroke-width:1.0;"/><path d="M1088.4688,868.0406 Q1087.8906,868.3375 1087.25,868.4781 Q1086.6094,868.6344 1085.9063,868.6344 Q1083.4063,868.6344 1082.0781,866.9938 Q1080.7656,865.3375 1080.7656,862.2125 Q1080.7656,859.0875 1082.0781,857.4313 Q1083.4063,855.775 1085.9063,855.775 Q1086.6094,855.775 1087.25,855.9313 Q1087.9063,856.0875 1088.4688,856.3844 L1088.4688,859.1031 Q1087.8438,858.525 1087.25,858.2594 Q1086.6563,857.9781 1086.0313,857.9781 Q1084.6875,857.9781 1084,859.0563 Q1083.3125,860.1188 1083.3125,862.2125 Q1083.3125,864.3063 1084,865.3844 Q1084.6875,866.4469 1086.0313,866.4469 Q1086.6563,866.4469 1087.25,866.1813 Q1087.8438,865.9 1088.4688,865.3219 L1088.4688,868.0406 Z " fill="#000000"/><text fill="#000000" font-family="sans-serif" font-size="14" lengthAdjust="spacing" textLength="35" x="1099.5" y="867.2467">Form</text><line style="stroke:#181818;stroke-width:0.5;" x1="1071.5" x2="1136.5" y1="878.4" y2="878.4"/><line style="stroke:#181818;stroke-width:0.5;" x1="1071.5" x2="1136.5" y1="886.4" y2="886.4"/></g><!--link EventRepository to EventItem--><g id="link_EventRepository_EventItem"><path codeLine="88" d="M581.82,984.28 C611.99,1002.77 641.56,1023.04 668,1044.72 C683.63,1057.53 694.7331,1067.7242 709.1831,1082.9042 " fill="none" id="EventRepository-to-EventItem" style="stroke:#181818;stroke-width:1.0;"/><polygon fill="#181818" points="713.32,1087.25,710.0119,1077.9733,709.8726,1083.6285,704.2175,1083.4891,713.32,1087.25" style="stroke:#181818;stroke-width:1.0;"/><text fill="#000000" font-family="sans-serif" font-size="13" lengthAdjust="spacing" textLength="94" x="653.71" y="1032.7869">returns / maps</text></g><!--link EventRepository to Db--><g id="link_EventRepository_Db"><path codeLine="89" d="M349,984.31 C349,1057.65 349,1142.43 349,1191.48 " fill="none" id="EventRepository-to-Db" style="stroke:#181818;stroke-width:1.0;"/><polygon fill="#181818" points="349,1197.48,353,1188.48,349,1192.48,345,1188.48,349,1197.48" style="stroke:#181818;stroke-width:1.0;"/><text fill="#000000" font-family="sans-serif" font-size="13" lengthAdjust="spacing" textLength="30" x="350" y="1032.7869">uses</text></g><!--link FormList to EventRepository--><g id="link_FormList_EventRepository"><path codeLine="90" d="M1513.77,521.37 C1283.62,590.14 919.1789,699.0324 658.0089,777.0624 " fill="none" id="FormList-to-EventRepository" style="stroke:#181818;stroke-width:1.0;"/><polygon fill="#181818" points="652.26,778.78,662.0284,780.0362,657.0507,777.3487,659.7383,772.371,652.26,778.78" style="stroke:#181818;stroke-width:1.0;"/><text fill="#000000" font-family="sans-serif" font-size="13" lengthAdjust="spacing" textLength="30" x="1079.26" y="658.8269">uses</text></g><!--link FormAddEvent to EventRepository--><g id="link_FormAddEvent_EventRepository"><path codeLine="91" d="M1513.16,179.34 C1414.89,202.82 1273.77,242.57 1159,298.75 C900.79,425.14 639.129,625.8926 485.359,752.7026 " fill="none" id="FormAddEvent-to-EventRepository" style="stroke:#181818;stroke-width:1.0;"/><polygon fill="#181818" points="480.73,756.52,490.2184,753.8799,484.5875,753.3388,485.1285,747.7079,480.73,756.52" style="stroke:#181818;stroke-width:1.0;"/><text fill="#000000" font-family="sans-serif" font-size="13" lengthAdjust="spacing" textLength="30" x="1160" y="461.8269">uses</text></g><!--link CalendarForm to EventItem--><g id="link_CalendarForm_EventItem"><path codeLine="92" d="M1566.31,964.19 C1527.8,980.47 1487.83,996.92 1450,1011.72 C1274.86,1080.21 1074.4059,1149.4641 948.1559,1192.0041 " fill="none" id="CalendarForm-to-EventItem" style="stroke:#181818;stroke-width:1.0;"/><polygon fill="#181818" points="942.47,1193.92,952.2761,1194.8368,947.2082,1192.3234,949.7216,1187.2556,942.47,1193.92" style="stroke:#181818;stroke-width:1.0;"/><text fill="#000000" font-family="sans-serif" font-size="13" lengthAdjust="spacing" textLength="142" x="1417.73" y="1032.7869">displays / manipulates</text></g><!--link FormList to CalendarForm--><g id="link_FormList_CalendarForm"><path codeLine="93" d="M1744.96,616.04 C1751.83,670.39 1758.5468,723.4975 1764.5468,770.9175 " fill="none" id="FormList-to-CalendarForm" style="stroke:#181818;stroke-width:1.0;"/><polygon fill="#181818" points="1765.3,776.87,1768.1386,767.4391,1764.6724,771.9095,1760.2019,768.4433,1765.3,776.87" style="stroke:#181818;stroke-width:1.0;"/><text fill="#000000" font-family="sans-serif" font-size="13" lengthAdjust="spacing" textLength="39" x="1750.44" y="658.8269">opens</text></g><!--link FormList to NET--><g id="link_FormList_NET"><path codeLine="94" d="M1513.94,550.16 C1457.9,582.13 1401.07,622.37 1358,670.76 C1311.03,723.54 1288.0727,800.0863 1278.4427,840.1363 " fill="none" id="FormList-to-NET" style="stroke:#181818;stroke-width:1.0;stroke-dasharray:7.0,7.0;"/><polygon fill="#181818" points="1277.04,845.97,1283.0332,838.1546,1278.2089,841.1086,1275.2549,836.2843,1277.04,845.97" style="stroke:#181818;stroke-width:1.0;"/><text fill="#000000" font-family="sans-serif" font-size="13" lengthAdjust="spacing" textLength="75" x="1382.74" y="658.8269">depends on</text></g><!--link FormList to Json--><g id="link_FormList_Json"><path codeLine="95" d="M1543.19,616.15 C1526.99,633.77 1511.6,652.12 1498,670.76 C1456.07,728.25 1427.3261,801.7383 1413.7361,840.4783 " fill="none" id="FormList-to-Json" style="stroke:#181818;stroke-width:1.0;stroke-dasharray:7.0,7.0;"/><polygon fill="#181818" points="1411.75,846.14,1418.5037,838.9715,1413.4051,841.4219,1410.9547,836.3233,1411.75,846.14" style="stroke:#181818;stroke-width:1.0;"/><text fill="#000000" font-family="sans-serif" font-size="13" lengthAdjust="spacing" textLength="75" x="1514.31" y="658.8269">depends on</text></g><!--link Program to FormList--><g id="link_Program_FormList"><path codeLine="96" d="M1829.81,185.38 C1819.13,212.98 1804.9161,249.7347 1788.2461,292.7947 " fill="none" id="Program-to-FormList" style="stroke:#181818;stroke-width:1.0;"/><polygon fill="#181818" points="1786.08,298.39,1793.0594,291.4411,1787.8851,293.7272,1785.599,288.5529,1786.08,298.39" style="stroke:#181818;stroke-width:1.0;"/><text fill="#000000" font-family="sans-serif" font-size="13" lengthAdjust="spacing" textLength="37" x="1801.82" y="264.8169">starts</text></g><!--link FormList to Form--><g id="link_FormList_Form"><path codeLine="99" d="M1513.69,569.61 C1432.05,610.82 1348.05,650.52 1305,662.76 C1288.03,667.59 1240.95,661.38 1226,670.76 C1160.19,712.07 1129.9581,786.0071 1116.2081,828.9571 " fill="none" id="FormList-to-Form" style="stroke:#181818;stroke-width:1.0;"/><polygon fill="none" points="1110.72,846.1,1121.9224,830.7864,1110.4938,827.1277,1110.72,846.1" style="stroke:#181818;stroke-width:1.0;"/></g><!--link FormAddEvent to Form--><g id="link_FormAddEvent_Form"><path codeLine="100" d="M1551.38,221.9 C1450.44,310.05 1279.55,473.02 1178,645.76 C1138.52,712.92 1120.3831,786.3262 1111.8631,828.5162 " fill="none" id="FormAddEvent-to-Form" style="stroke:#181818;stroke-width:1.0;"/><polygon fill="none" points="1108.3,846.16,1117.7443,829.7039,1105.9818,827.3285,1108.3,846.16" style="stroke:#181818;stroke-width:1.0;"/></g><!--link CalendarForm to Form--><g id="link_CalendarForm_Form"><path codeLine="101" d="M1670.62,776.59 C1606.46,726.4 1520.33,669.61 1432.5,643.26 C1352.04,619.13 1317.13,602.84 1243.5,643.26 C1163.99,686.91 1129.4463,779.5644 1115.2763,828.7144 " fill="none" id="CalendarForm-to-Form" style="stroke:#181818;stroke-width:1.0;"/><polygon fill="none" points="1110.29,846.01,1121.0415,830.3765,1109.5111,827.0523,1110.29,846.01" style="stroke:#181818;stroke-width:1.0;"/></g><!--SRC=[bLPHRzis47xtho3wKXcMl7V3y53RJPh1ZeF4Rh0LXS685vaBHQeavTJR2kn7z1Vkb-meoef4joxw4jl7xuvtn- - -osioKtbUIcuFvEqUf2KNN3BGvBz_lv8RhVw4r9BDSa6Y6q6bnM_zNg-WwHFDWBngV2jNywOeXal5G9XNvEyU8QcWnlYmLnRooaR8m1iO6H5ZDPUPjzwfKgSG6DVSYj0s1vDgNbYkP70oenOofGzXP4krNVFS1PeZn7sjCv4ii9CFiXI2FWZuw27lGPPmJVCmYpUCQS3gWWnS7qzkjw7p7xm8B0jgkIsP0p9LulKdYIoKp7u0sMZH3lkbz-NyMs7HjFrIymSo7XlCbwUJoV6rLWN8g8znxpw9cP8I2O6Thy9td_WM2cMuTVtthabfG8Vld6m5HMW6dz5UVHxDIfwQ1q7agE_Hbs1NUgO1Mxl1Iwhyskt4Sr_cXTApKclykbJIxYhWWXixRbWvQJmkw5vfRk4dFQ_CqJ62WDdEvq4fKPDPPPc0i-2zugoEAh4kNqHatHJ49Atf7QC3CZec85bCzewWCQ6UZuZ29wuG5gr_yI8c30Sc9gKMdHkIjJvSWafnNgFlEZkFY47ASof-9VXoBjhnbvBz4vPjheRtN6Blyeu6e99acZOAiAJSSwhEfaKbv-hQZ4nqNniU9bkDB42NW17-CATke2wNj42AMbrt7Ctw2VHg3rhGGmseVtc0feoNvWmWzHJmqZXwqRA6oyPUQiuyPRx3a2G3DQFfhj8PNeqFrOUnV_MOhCj2mBXkQrn_JchNROgXGACyD6FVFQX4i7FWQrfo0QPxD3ZsjfwYmRJaWYteGPKswhBl5eIYp5LsSi0qVSOk1NQK4t6OOsmgKvYMrYgvdGcUFaK6t3v1idOTCCHs9PVL0taWpaJUXGMqGCdrxn1Iummp1ct7ethSSmsROg4oddRBIExe7gRsVEh9BNmgCKAKUgh5E1SF85gptifxHWK6eTgbSP8td6KDDZgRAgU7DrI2U36k7XyDsD_nW4lhpUzmURu3dkriopfeNuvoSthJn_wn8bVed1uYLet1SHjswvxZotkYttExysDIHC8Dwqa9NK-lrDNfL2ZiBEpRmuIweqIPIvzxJAoo57UDCnblwxUwK0dEQrmIA4SuIcR72qD-GLqgN1KovM1wuK9Aaadh_v0HqM1BBPqRAiUtuRWCHmGtcEarajH4QK5Rc8QVPt0TFeHPCMuAL1wVbkH5YHM6ztS2Z8Z2ebk8uN1IQTZm-ktQ1QnwOWZkwmxa6fvnG8rwjCFVZ5UG5-HHgzrjZTV8xnpZEh-vmYVP0IunD-ojzFwPaBk3mLhS3c3gsGohHL3z3Jfq5jfjqZde_m00]--></g></svg>