<svg xmlns="http://www.w3.org/2000/svg" xmlns:xlink="http://www.w3.org/1999/xlink" contentStyleType="text/css" height="2018px" preserveAspectRatio="none" style="width:851px;height:2018px;background:#FFFFFF;" version="1.1" viewBox="0 0 851 2018" width="851px" zoomAndPan="magnify"><defs/><g><text fill="#000000" font-family="sans-serif" font-size="14" font-weight="bold" lengthAdjust="spacing" textLength="387" x="225" y="22.9951">Community Events Platform - Full Class Overview</text><!--cluster Frontend (Browser)--><g id="cluster_Frontend (Browser)"><path d="M201.5,43.2969 L358.5,43.2969 A3.75,3.75 0 0 1 361,45.7969 L368,65.5938 L484.5,65.5938 A2.5,2.5 0 0 1 487,68.0938 L487,829.8069 A2.5,2.5 0 0 1 484.5,832.3069 L201.5,832.3069 A2.5,2.5 0 0 1 199,829.8069 L199,45.7969 A2.5,2.5 0 0 1 201.5,43.2969 " fill="none" style="stroke:#000000;stroke-width:1.5;"/><line style="stroke:#000000;stroke-width:1.5;" x1="199" x2="368" y1="65.5938" y2="65.5938"/><text fill="#000000" font-family="sans-serif" font-size="14" font-weight="bold" lengthAdjust="spacing" textLength="156" x="203" y="58.292">Frontend (Browser)</text></g><!--cluster Backend (ASP--><g id="cluster_Backend (ASP"><path d="M8.5,881.3069 L118.5,881.3069 A3.75,3.75 0 0 1 121,883.8069 L128,903.6038 L584.5,903.6038 A2.5,2.5 0 0 1 587,906.1038 L587,1800.6069 A2.5,2.5 0 0 1 584.5,1803.1069 L8.5,1803.1069 A2.5,2.5 0 0 1 6,1800.6069 L6,883.8069 A2.5,2.5 0 0 1 8.5,881.3069 " fill="none" style="stroke:#000000;stroke-width:1.5;"/><line style="stroke:#000000;stroke-width:1.5;" x1="6" x2="128" y1="903.6038" y2="903.6038"/><text fill="#000000" font-family="sans-serif" font-size="14" font-weight="bold" lengthAdjust="spacing" textLength="109" x="10" y="896.302">Backend (ASP</text></g><!--cluster NET Core)--><g id="cluster_NET Core)"><path d="M32.5,924.3069 L112.5,924.3069 A3.75,3.75 0 0 1 115,926.8069 L122,946.6038 L560.5,946.6038 A2.5,2.5 0 0 1 563,949.1038 L563,1776.6069 A2.5,2.5 0 0 1 560.5,1779.1069 L32.5,1779.1069 A2.5,2.5 0 0 1 30,1776.6069 L30,926.8069 A2.5,2.5 0 0 1 32.5,924.3069 " fill="none" style="stroke:#000000;stroke-width:1.5;"/><line style="stroke:#000000;stroke-width:1.5;" x1="30" x2="122" y1="946.6038" y2="946.6038"/><text fill="#000000" font-family="sans-serif" font-size="14" font-weight="bold" lengthAdjust="spacing" textLength="79" x="34" y="939.302">NET Core)</text></g><!--cluster Database--><g id="cluster_Database"><path d="M613.5,1533.4369 L687.5,1533.4369 A3.75,3.75 0 0 1 690,1535.9369 L697,1555.7337 L841.5,1555.7337 A2.5,2.5 0 0 1 844,1558.2337 L844,2009.3869 A2.5,2.5 0 0 1 841.5,2011.8869 L613.5,2011.8869 A2.5,2.5 0 0 1 611,2009.3869 L611,1535.9369 A2.5,2.5 0 0 1 613.5,1533.4369 " fill="none" style="stroke:#000000;stroke-width:1.5;"/><line style="stroke:#000000;stroke-width:1.5;" x1="611" x2="697" y1="1555.7337" y2="1555.7337"/><text fill="#000000" font-family="sans-serif" font-size="14" font-weight="bold" lengthAdjust="spacing" textLength="73" x="615" y="1548.432">Database</text></g><!--class index_html--><g id="elem_index_html"><rect codeLine="9" fill="#F1F1F1" height="113.1875" id="index_html" rx="2.5" ry="2.5" style="stroke:#181818;stroke-width:0.5;" width="125" x="214.5" y="268.4769"/><ellipse cx="238.05" cy="284.4769" fill="#ADD1B2" rx="11" ry="11" style="stroke:#181818;stroke-width:1.0;"/><path d="M241.0188,290.1175 Q240.4406,290.4144 239.8,290.555 Q239.1594,290.7112 238.4563,290.7112 Q235.9563,290.7112 234.6281,289.0706 Q233.3156,287.4144 233.3156,284.2894 Q233.3156,281.1644 234.6281,279.5081 Q235.9563,277.8519 238.4563,277.8519 Q239.1594,277.8519 239.8,278.0081 Q240.4563,278.1644 241.0188,278.4612 L241.0188,281.18 Q240.3938,280.6019 239.8,280.3362 Q239.2063,280.055 238.5813,280.055 Q237.2375,280.055 236.55,281.1331 Q235.8625,282.1956 235.8625,284.2894 Q235.8625,286.3831 236.55,287.4612 Q237.2375,288.5237 238.5813,288.5237 Q239.2063,288.5237 239.8,288.2581 Q240.3938,287.9769 241.0188,287.3987 L241.0188,290.1175 Z " fill="#000000"/><text fill="#000000" font-family="sans-serif" font-size="14" lengthAdjust="spacing" textLength="74" x="253.95" y="289.3236">index_html</text><line style="stroke:#181818;stroke-width:0.5;" x1="215.5" x2="338.5" y1="300.4769" y2="300.4769"/><ellipse cx="225.5" cy="314.1253" fill="none" rx="3" ry="3" style="stroke:#038048;stroke-width:1.0;"/><text fill="#000000" font-family="sans-serif" font-size="14" lengthAdjust="spacing" textLength="48" x="234.5" y="317.472">toolbar</text><ellipse cx="225.5" cy="330.4222" fill="none" rx="3" ry="3" style="stroke:#038048;stroke-width:1.0;"/><text fill="#000000" font-family="sans-serif" font-size="14" lengthAdjust="spacing" textLength="99" x="234.5" y="333.7689">map container</text><ellipse cx="225.5" cy="346.7191" fill="none" rx="3" ry="3" style="stroke:#038048;stroke-width:1.0;"/><text fill="#000000" font-family="sans-serif" font-size="14" lengthAdjust="spacing" textLength="61" x="234.5" y="350.0657">list panel</text><ellipse cx="225.5" cy="363.0159" fill="none" rx="3" ry="3" style="stroke:#038048;stroke-width:1.0;"/><text fill="#000000" font-family="sans-serif" font-size="14" lengthAdjust="spacing" textLength="79" x="234.5" y="366.3626">detail panel</text><line style="stroke:#181818;stroke-width:0.5;" x1="215.5" x2="338.5" y1="373.6644" y2="373.6644"/></g><!--class start_html--><g id="elem_start_html"><rect codeLine="16" fill="#F1F1F1" height="113.1875" id="start_html" rx="2.5" ry="2.5" style="stroke:#181818;stroke-width:0.5;" width="121" x="216.5" y="78.2969"/><ellipse cx="240.95" cy="94.2969" fill="#ADD1B2" rx="11" ry="11" style="stroke:#181818;stroke-width:1.0;"/><path d="M243.9188,99.9375 Q243.3406,100.2344 242.7,100.375 Q242.0594,100.5313 241.3563,100.5313 Q238.8563,100.5313 237.5281,98.8906 Q236.2156,97.2344 236.2156,94.1094 Q236.2156,90.9844 237.5281,89.3281 Q238.8563,87.6719 241.3563,87.6719 Q242.0594,87.6719 242.7,87.8281 Q243.3563,87.9844 243.9188,88.2813 L243.9188,91 Q243.2938,90.4219 242.7,90.1563 Q242.1063,89.875 241.4813,89.875 Q240.1375,89.875 239.45,90.9531 Q238.7625,92.0156 238.7625,94.1094 Q238.7625,96.2031 239.45,97.2813 Q240.1375,98.3438 241.4813,98.3438 Q242.1063,98.3438 242.7,98.0781 Q243.2938,97.7969 243.9188,97.2188 L243.9188,99.9375 Z " fill="#000000"/><text fill="#000000" font-family="sans-serif" font-size="14" lengthAdjust="spacing" textLength="68" x="257.05" y="99.1436">start_html</text><line style="stroke:#181818;stroke-width:0.5;" x1="217.5" x2="336.5" y1="110.2969" y2="110.2969"/><ellipse cx="227.5" cy="123.9453" fill="none" rx="3" ry="3" style="stroke:#038048;stroke-width:1.0;"/><text fill="#000000" font-family="sans-serif" font-size="14" lengthAdjust="spacing" textLength="95" x="236.5" y="127.292">address input</text><ellipse cx="227.5" cy="140.2422" fill="none" rx="3" ry="3" style="stroke:#038048;stroke-width:1.0;"/><text fill="#000000" font-family="sans-serif" font-size="14" lengthAdjust="spacing" textLength="93" x="236.5" y="143.5889">category filter</text><ellipse cx="227.5" cy="156.5391" fill="none" rx="3" ry="3" style="stroke:#038048;stroke-width:1.0;"/><text fill="#000000" font-family="sans-serif" font-size="14" lengthAdjust="spacing" textLength="75" x="236.5" y="159.8857">radius filter</text><line style="stroke:#181818;stroke-width:0.5;" x1="217.5" x2="336.5" y1="167.1875" y2="167.1875"/><ellipse cx="227.5" cy="180.8359" fill="#84BE84" rx="3" ry="3" style="stroke:#038048;stroke-width:1.0;"/><text fill="#000000" font-family="sans-serif" font-size="14" lengthAdjust="spacing" textLength="28" x="236.5" y="184.1826">go()</text></g><!--class add_html--><g id="elem_add_html"><rect codeLine="23" fill="#F1F1F1" height="80.5938" id="add_html" rx="2.5" ry="2.5" style="stroke:#181818;stroke-width:0.5;" width="97" x="374.5" y="284.7769"/><ellipse cx="390.4" cy="300.7769" fill="#ADD1B2" rx="11" ry="11" style="stroke:#181818;stroke-width:1.0;"/><path d="M393.3688,306.4175 Q392.7906,306.7144 392.15,306.855 Q391.5094,307.0113 390.8063,307.0113 Q388.3063,307.0113 386.9781,305.3706 Q385.6656,303.7144 385.6656,300.5894 Q385.6656,297.4644 386.9781,295.8081 Q388.3063,294.1519 390.8063,294.1519 Q391.5094,294.1519 392.15,294.3081 Q392.8063,294.4644 393.3688,294.7613 L393.3688,297.48 Q392.7438,296.9019 392.15,296.6363 Q391.5563,296.355 390.9313,296.355 Q389.5875,296.355 388.9,297.4331 Q388.2125,298.4956 388.2125,300.5894 Q388.2125,302.6831 388.9,303.7613 Q389.5875,304.8238 390.9313,304.8238 Q391.5563,304.8238 392.15,304.5581 Q392.7438,304.2769 393.3688,303.6988 L393.3688,306.4175 Z " fill="#000000"/><text fill="#000000" font-family="sans-serif" font-size="14" lengthAdjust="spacing" textLength="63" x="404.6" y="305.6236">add_html</text><line style="stroke:#181818;stroke-width:0.5;" x1="375.5" x2="470.5" y1="316.7769" y2="316.7769"/><ellipse cx="385.5" cy="330.4253" fill="none" rx="3" ry="3" style="stroke:#038048;stroke-width:1.0;"/><text fill="#000000" font-family="sans-serif" font-size="14" lengthAdjust="spacing" textLength="71" x="394.5" y="333.772">form fields</text><line style="stroke:#181818;stroke-width:0.5;" x1="375.5" x2="470.5" y1="341.0738" y2="341.0738"/><ellipse cx="385.5" cy="354.7222" fill="#84BE84" rx="3" ry="3" style="stroke:#038048;stroke-width:1.0;"/><text fill="#000000" font-family="sans-serif" font-size="14" lengthAdjust="spacing" textLength="42" x="394.5" y="358.0689">save()</text></g><!--class app_js--><g id="elem_app_js"><rect codeLine="28" fill="#F1F1F1" height="357.6406" id="app_js" rx="2.5" ry="2.5" style="stroke:#181818;stroke-width:0.5;" width="228" x="225" y="458.6669"/><ellipse cx="312.75" cy="474.6669" fill="#ADD1B2" rx="11" ry="11" style="stroke:#181818;stroke-width:1.0;"/><path d="M315.7188,480.3075 Q315.1406,480.6044 314.5,480.745 Q313.8594,480.9012 313.1563,480.9012 Q310.6563,480.9012 309.3281,479.2606 Q308.0156,477.6044 308.0156,474.4794 Q308.0156,471.3544 309.3281,469.6981 Q310.6563,468.0419 313.1563,468.0419 Q313.8594,468.0419 314.5,468.1981 Q315.1563,468.3544 315.7188,468.6512 L315.7188,471.37 Q315.0938,470.7919 314.5,470.5262 Q313.9063,470.245 313.2813,470.245 Q311.9375,470.245 311.25,471.3231 Q310.5625,472.3856 310.5625,474.4794 Q310.5625,476.5731 311.25,477.6512 Q311.9375,478.7137 313.2813,478.7137 Q313.9063,478.7137 314.5,478.4481 Q315.0938,478.1669 315.7188,477.5887 L315.7188,480.3075 Z " fill="#000000"/><text fill="#000000" font-family="sans-serif" font-size="14" lengthAdjust="spacing" textLength="44" x="333.25" y="479.5136">app_js</text><line style="stroke:#181818;stroke-width:0.5;" x1="226" x2="452" y1="490.6669" y2="490.6669"/><rect fill="none" height="6" style="stroke:#C82930;stroke-width:1.0;" width="6" x="233" y="501.3153"/><text fill="#000000" font-family="sans-serif" font-size="14" lengthAdjust="spacing" textLength="107" x="245" y="507.662">allEvents : array</text><rect fill="none" height="6" style="stroke:#C82930;stroke-width:1.0;" width="6" x="233" y="517.6122"/><text fill="#000000" font-family="sans-serif" font-size="14" lengthAdjust="spacing" textLength="124" x="245" y="523.9589">selectedId : string</text><rect fill="none" height="6" style="stroke:#C82930;stroke-width:1.0;" width="6" x="233" y="533.9091"/><text fill="#000000" font-family="sans-serif" font-size="14" lengthAdjust="spacing" textLength="129" x="245" y="540.2557">searchText : string</text><rect fill="none" height="6" style="stroke:#C82930;stroke-width:1.0;" width="6" x="233" y="550.2059"/><text fill="#000000" font-family="sans-serif" font-size="14" lengthAdjust="spacing" textLength="144" x="245" y="556.5526">radiusMiles : number</text><rect fill="none" height="6" style="stroke:#C82930;stroke-width:1.0;" width="6" x="233" y="566.5028"/><text fill="#000000" font-family="sans-serif" font-size="14" lengthAdjust="spacing" textLength="132" x="245" y="572.8495">centerLat : number</text><rect fill="none" height="6" style="stroke:#C82930;stroke-width:1.0;" width="6" x="233" y="582.7997"/><text fill="#000000" font-family="sans-serif" font-size="14" lengthAdjust="spacing" textLength="137" x="245" y="589.1464">centerLon : number</text><rect fill="none" height="6" style="stroke:#C82930;stroke-width:1.0;" width="6" x="233" y="599.0966"/><text fill="#000000" font-family="sans-serif" font-size="14" lengthAdjust="spacing" textLength="119" x="245" y="605.4432">markerMap : Map</text><line style="stroke:#181818;stroke-width:0.5;" x1="226" x2="452" y1="612.745" y2="612.745"/><ellipse cx="236" cy="626.3934" fill="#84BE84" rx="3" ry="3" style="stroke:#038048;stroke-width:1.0;"/><text fill="#000000" font-family="sans-serif" font-size="14" lengthAdjust="spacing" textLength="30" x="245" y="629.7401">init()</text><ellipse cx="236" cy="642.6903" fill="#84BE84" rx="3" ry="3" style="stroke:#038048;stroke-width:1.0;"/><text fill="#000000" font-family="sans-serif" font-size="14" lengthAdjust="spacing" textLength="86" x="245" y="646.037">loadEvents()</text><ellipse cx="236" cy="658.9872" fill="#84BE84" rx="3" ry="3" style="stroke:#038048;stroke-width:1.0;"/><text fill="#000000" font-family="sans-serif" font-size="14" lengthAdjust="spacing" textLength="87" x="245" y="662.3339">applyFilters()</text><ellipse cx="236" cy="675.2841" fill="#84BE84" rx="3" ry="3" style="stroke:#038048;stroke-width:1.0;"/><text fill="#000000" font-family="sans-serif" font-size="14" lengthAdjust="spacing" textLength="132" x="245" y="678.6307">renderMap(events)</text><ellipse cx="236" cy="691.5809" fill="#84BE84" rx="3" ry="3" style="stroke:#038048;stroke-width:1.0;"/><text fill="#000000" font-family="sans-serif" font-size="14" lengthAdjust="spacing" textLength="126" x="245" y="694.9276">renderList(events)</text><ellipse cx="236" cy="707.8778" fill="#84BE84" rx="3" ry="3" style="stroke:#038048;stroke-width:1.0;"/><text fill="#000000" font-family="sans-serif" font-size="14" lengthAdjust="spacing" textLength="130" x="245" y="711.2245">selectEvent(event)</text><ellipse cx="236" cy="724.1747" fill="#84BE84" rx="3" ry="3" style="stroke:#038048;stroke-width:1.0;"/><text fill="#000000" font-family="sans-serif" font-size="14" lengthAdjust="spacing" textLength="150" x="245" y="727.5214">highlightMarker(id,on)</text><ellipse cx="236" cy="740.4716" fill="#84BE84" rx="3" ry="3" style="stroke:#038048;stroke-width:1.0;"/><text fill="#000000" font-family="sans-serif" font-size="14" lengthAdjust="spacing" textLength="126" x="245" y="743.8182">highlightList(id,on)</text><ellipse cx="236" cy="756.7684" fill="#84BE84" rx="3" ry="3" style="stroke:#038048;stroke-width:1.0;"/><text fill="#000000" font-family="sans-serif" font-size="14" lengthAdjust="spacing" textLength="202" x="245" y="760.1151">setCenterFromAddress(addr)</text><ellipse cx="236" cy="773.0653" fill="#84BE84" rx="3" ry="3" style="stroke:#038048;stroke-width:1.0;"/><text fill="#000000" font-family="sans-serif" font-size="14" lengthAdjust="spacing" textLength="161" x="245" y="776.412">openCalendarWindow()</text><ellipse cx="236" cy="789.3622" fill="#84BE84" rx="3" ry="3" style="stroke:#038048;stroke-width:1.0;"/><text fill="#000000" font-family="sans-serif" font-size="14" lengthAdjust="spacing" textLength="138" x="245" y="792.7089">afterCreateEvent(id)</text><ellipse cx="236" cy="805.6591" fill="#84BE84" rx="3" ry="3" style="stroke:#038048;stroke-width:1.0;"/><text fill="#000000" font-family="sans-serif" font-size="14" lengthAdjust="spacing" textLength="62" x="245" y="809.0057">showAll()</text></g><!--class EventsController--><g id="elem_EventsController"><rect codeLine="67" fill="#F1F1F1" height="145.7813" id="EventsController" rx="2.5" ry="2.5" style="stroke:#181818;stroke-width:0.5;" width="150" x="264" y="959.3069"/><ellipse cx="280.8" cy="975.3069" fill="#ADD1B2" rx="11" ry="11" style="stroke:#181818;stroke-width:1.0;"/><path d="M283.7688,980.9475 Q283.1906,981.2444 282.55,981.385 Q281.9094,981.5413 281.2063,981.5413 Q278.7063,981.5413 277.3781,979.9006 Q276.0656,978.2444 276.0656,975.1194 Q276.0656,971.9944 277.3781,970.3381 Q278.7063,968.6819 281.2063,968.6819 Q281.9094,968.6819 282.55,968.8381 Q283.2063,968.9944 283.7688,969.2913 L283.7688,972.01 Q283.1438,971.4319 282.55,971.1663 Q281.9563,970.885 281.3313,970.885 Q279.9875,970.885 279.3,971.9631 Q278.6125,973.0256 278.6125,975.1194 Q278.6125,977.2131 279.3,978.2913 Q279.9875,979.3538 281.3313,979.3538 Q281.9563,979.3538 282.55,979.0881 Q283.1438,978.8069 283.7688,978.2288 L283.7688,980.9475 Z " fill="#000000"/><text fill="#000000" font-family="sans-serif" font-size="14" lengthAdjust="spacing" textLength="114" x="295.2" y="980.1536">EventsController</text><line style="stroke:#181818;stroke-width:0.5;" x1="265" x2="413" y1="991.3069" y2="991.3069"/><line style="stroke:#181818;stroke-width:0.5;" x1="265" x2="413" y1="999.3069" y2="999.3069"/><ellipse cx="275" cy="1012.9553" fill="#84BE84" rx="3" ry="3" style="stroke:#038048;stroke-width:1.0;"/><text fill="#000000" font-family="sans-serif" font-size="14" lengthAdjust="spacing" textLength="50" x="284" y="1016.302">GetAll()</text><ellipse cx="275" cy="1029.2522" fill="#84BE84" rx="3" ry="3" style="stroke:#038048;stroke-width:1.0;"/><text fill="#000000" font-family="sans-serif" font-size="14" lengthAdjust="spacing" textLength="60" x="284" y="1032.5989">Add(dto)</text><ellipse cx="275" cy="1045.5491" fill="#84BE84" rx="3" ry="3" style="stroke:#038048;stroke-width:1.0;"/><text fill="#000000" font-family="sans-serif" font-size="14" lengthAdjust="spacing" textLength="72" x="284" y="1048.8957">Favorites()</text><ellipse cx="275" cy="1061.8459" fill="#84BE84" rx="3" ry="3" style="stroke:#038048;stroke-width:1.0;"/><text fill="#000000" font-family="sans-serif" font-size="14" lengthAdjust="spacing" textLength="124" x="284" y="1065.1926">ToggleFavorite(id)</text><ellipse cx="275" cy="1078.1428" fill="#84BE84" rx="3" ry="3" style="stroke:#038048;stroke-width:1.0;"/><text fill="#000000" font-family="sans-serif" font-size="14" lengthAdjust="spacing" textLength="68" x="284" y="1081.4895">Delete(id)</text><ellipse cx="275" cy="1094.4397" fill="#84BE84" rx="3" ry="3" style="stroke:#038048;stroke-width:1.0;"/><text fill="#000000" font-family="sans-serif" font-size="14" lengthAdjust="spacing" textLength="73" x="284" y="1097.7864">ExportIcs()</text></g><!--class EventRepository--><g id="elem_EventRepository"><rect codeLine="77" fill="#F1F1F1" height="194.6719" id="EventRepository" rx="2.5" ry="2.5" style="stroke:#181818;stroke-width:0.5;" width="321" x="45.5" y="1182.3869"/><ellipse cx="145.25" cy="1198.3869" fill="#ADD1B2" rx="11" ry="11" style="stroke:#181818;stroke-width:1.0;"/><path d="M148.2188,1204.0275 Q147.6406,1204.3244 147,1204.465 Q146.3594,1204.6213 145.6563,1204.6213 Q143.1563,1204.6213 141.8281,1202.9806 Q140.5156,1201.3244 140.5156,1198.1994 Q140.5156,1195.0744 141.8281,1193.4181 Q143.1563,1191.7619 145.6563,1191.7619 Q146.3594,1191.7619 147,1191.9181 Q147.6563,1192.0744 148.2188,1192.3713 L148.2188,1195.09 Q147.5938,1194.5119 147,1194.2463 Q146.4063,1193.965 145.7813,1193.965 Q144.4375,1193.965 143.75,1195.0431 Q143.0625,1196.1056 143.0625,1198.1994 Q143.0625,1200.2931 143.75,1201.3713 Q144.4375,1202.4338 145.7813,1202.4338 Q146.4063,1202.4338 147,1202.1681 Q147.5938,1201.8869 148.2188,1201.3088 L148.2188,1204.0275 Z " fill="#000000"/><text fill="#000000" font-family="sans-serif" font-size="14" lengthAdjust="spacing" textLength="113" x="165.75" y="1203.2336">EventRepository</text><line style="stroke:#181818;stroke-width:0.5;" x1="46.5" x2="365.5" y1="1214.3869" y2="1214.3869"/><rect fill="none" height="6" style="stroke:#C82930;stroke-width:1.0;" width="6" x="53.5" y="1225.0353"/><text fill="#000000" font-family="sans-serif" font-size="14" lengthAdjust="spacing" textLength="102" x="65.5" y="1231.382">_userId : string</text><rect fill="none" height="6" style="stroke:#C82930;stroke-width:1.0;" width="6" x="53.5" y="1241.3322"/><text fill="#000000" font-family="sans-serif" font-size="14" lengthAdjust="spacing" textLength="219" x="65.5" y="1247.6789">_httpFactory : IHttpClientFactory</text><line style="stroke:#181818;stroke-width:0.5;" x1="46.5" x2="365.5" y1="1254.9806" y2="1254.9806"/><ellipse cx="56.5" cy="1268.6291" fill="#84BE84" rx="3" ry="3" style="stroke:#038048;stroke-width:1.0;"/><text fill="#000000" font-family="sans-serif" font-size="14" lengthAdjust="spacing" textLength="241" x="65.5" y="1271.9757">GetEventsForCurrentMonthAsync()</text><ellipse cx="56.5" cy="1284.9259" fill="#84BE84" rx="3" ry="3" style="stroke:#038048;stroke-width:1.0;"/><text fill="#000000" font-family="sans-serif" font-size="14" lengthAdjust="spacing" textLength="295" x="65.5" y="1288.2726">GetFavoriteEventsForCurrentMonthAsync()</text><ellipse cx="56.5" cy="1301.2228" fill="#84BE84" rx="3" ry="3" style="stroke:#038048;stroke-width:1.0;"/><text fill="#000000" font-family="sans-serif" font-size="14" lengthAdjust="spacing" textLength="141" x="65.5" y="1304.5695">InsertEventAsync(...)</text><ellipse cx="56.5" cy="1317.5197" fill="#84BE84" rx="3" ry="3" style="stroke:#038048;stroke-width:1.0;"/><text fill="#000000" font-family="sans-serif" font-size="14" lengthAdjust="spacing" textLength="148" x="65.5" y="1320.8664">DeleteEventAsync(id)</text><ellipse cx="56.5" cy="1333.8166" fill="#84BE84" rx="3" ry="3" style="stroke:#038048;stroke-width:1.0;"/><text fill="#000000" font-family="sans-serif" font-size="14" lengthAdjust="spacing" textLength="165" x="65.5" y="1337.1632">ToggleFavoriteAsync(id)</text><rect fill="#F24D5C" height="6" style="stroke:#C82930;stroke-width:1.0;" width="6" x="53.5" y="1347.1134"/><text fill="#000000" font-family="sans-serif" font-size="14" lengthAdjust="spacing" textLength="148" x="65.5" y="1353.4601">TryGeocodeAsync(...)</text><rect fill="#F24D5C" height="6" style="stroke:#C82930;stroke-width:1.0;" width="6" x="53.5" y="1363.4103"/><text fill="#000000" font-family="sans-serif" font-size="14" lengthAdjust="spacing" textLength="123" x="65.5" y="1369.757">MapEvent(reader)</text></g><!--class EventItem--><g id="elem_EventItem"><rect codeLine="91" fill="#F1F1F1" height="308.75" id="EventItem" rx="2.5" ry="2.5" style="stroke:#181818;stroke-width:0.5;" width="172" x="120" y="1454.3569"/><ellipse cx="167.25" cy="1470.3569" fill="#ADD1B2" rx="11" ry="11" style="stroke:#181818;stroke-width:1.0;"/><path d="M170.2188,1475.9975 Q169.6406,1476.2944 169,1476.435 Q168.3594,1476.5913 167.6563,1476.5913 Q165.1563,1476.5913 163.8281,1474.9506 Q162.5156,1473.2944 162.5156,1470.1694 Q162.5156,1467.0444 163.8281,1465.3881 Q165.1563,1463.7319 167.6563,1463.7319 Q168.3594,1463.7319 169,1463.8881 Q169.6563,1464.0444 170.2188,1464.3413 L170.2188,1467.06 Q169.5938,1466.4819 169,1466.2163 Q168.4063,1465.935 167.7813,1465.935 Q166.4375,1465.935 165.75,1467.0131 Q165.0625,1468.0756 165.0625,1470.1694 Q165.0625,1472.2631 165.75,1473.3413 Q166.4375,1474.4038 167.7813,1474.4038 Q168.4063,1474.4038 169,1474.1381 Q169.5938,1473.8569 170.2188,1473.2788 L170.2188,1475.9975 Z " fill="#000000"/><text fill="#000000" font-family="sans-serif" font-size="14" lengthAdjust="spacing" textLength="69" x="187.75" y="1475.2036">EventItem</text><line style="stroke:#181818;stroke-width:0.5;" x1="121" x2="291" y1="1486.3569" y2="1486.3569"/><ellipse cx="131" cy="1500.0053" fill="none" rx="3" ry="3" style="stroke:#038048;stroke-width:1.0;"/><text fill="#000000" font-family="sans-serif" font-size="14" lengthAdjust="spacing" textLength="103" x="140" y="1503.352">EventId : string</text><ellipse cx="131" cy="1516.3022" fill="none" rx="3" ry="3" style="stroke:#038048;stroke-width:1.0;"/><text fill="#000000" font-family="sans-serif" font-size="14" lengthAdjust="spacing" textLength="101" x="140" y="1519.6489">Source : string</text><ellipse cx="131" cy="1532.5991" fill="none" rx="3" ry="3" style="stroke:#038048;stroke-width:1.0;"/><text fill="#000000" font-family="sans-serif" font-size="14" lengthAdjust="spacing" textLength="81" x="140" y="1535.9457">Title : string</text><ellipse cx="131" cy="1548.8959" fill="none" rx="3" ry="3" style="stroke:#038048;stroke-width:1.0;"/><text fill="#000000" font-family="sans-serif" font-size="14" lengthAdjust="spacing" textLength="131" x="140" y="1552.2426">Description : string</text><ellipse cx="131" cy="1565.1928" fill="none" rx="3" ry="3" style="stroke:#038048;stroke-width:1.0;"/><text fill="#000000" font-family="sans-serif" font-size="14" lengthAdjust="spacing" textLength="114" x="140" y="1568.5395">Category : string</text><ellipse cx="131" cy="1581.4897" fill="none" rx="3" ry="3" style="stroke:#038048;stroke-width:1.0;"/><text fill="#000000" font-family="sans-serif" font-size="14" lengthAdjust="spacing" textLength="146" x="140" y="1584.8364">StartTime : DateTime</text><ellipse cx="131" cy="1597.7866" fill="none" rx="3" ry="3" style="stroke:#038048;stroke-width:1.0;"/><text fill="#000000" font-family="sans-serif" font-size="14" lengthAdjust="spacing" textLength="141" x="140" y="1601.1332">EndTime : DateTime</text><ellipse cx="131" cy="1614.0834" fill="none" rx="3" ry="3" style="stroke:#038048;stroke-width:1.0;"/><text fill="#000000" font-family="sans-serif" font-size="14" lengthAdjust="spacing" textLength="137" x="140" y="1617.4301">VenueName : string</text><ellipse cx="131" cy="1630.3803" fill="none" rx="3" ry="3" style="stroke:#038048;stroke-width:1.0;"/><text fill="#000000" font-family="sans-serif" font-size="14" lengthAdjust="spacing" textLength="109" x="140" y="1633.727">Address : string</text><ellipse cx="131" cy="1646.6772" fill="none" rx="3" ry="3" style="stroke:#038048;stroke-width:1.0;"/><text fill="#000000" font-family="sans-serif" font-size="14" lengthAdjust="spacing" textLength="77" x="140" y="1650.0239">City : string</text><ellipse cx="131" cy="1662.9741" fill="none" rx="3" ry="3" style="stroke:#038048;stroke-width:1.0;"/><text fill="#000000" font-family="sans-serif" font-size="14" lengthAdjust="spacing" textLength="88" x="140" y="1666.3207">State : string</text><ellipse cx="131" cy="1679.2709" fill="none" rx="3" ry="3" style="stroke:#038048;stroke-width:1.0;"/><text fill="#000000" font-family="sans-serif" font-size="14" lengthAdjust="spacing" textLength="74" x="140" y="1682.6176">Zip : string</text><ellipse cx="131" cy="1695.5678" fill="none" rx="3" ry="3" style="stroke:#038048;stroke-width:1.0;"/><text fill="#000000" font-family="sans-serif" font-size="14" lengthAdjust="spacing" textLength="116" x="140" y="1698.9145">Latitude : double</text><ellipse cx="131" cy="1711.8647" fill="none" rx="3" ry="3" style="stroke:#038048;stroke-width:1.0;"/><text fill="#000000" font-family="sans-serif" font-size="14" lengthAdjust="spacing" textLength="130" x="140" y="1715.2114">Longitude : double</text><ellipse cx="131" cy="1728.1616" fill="none" rx="3" ry="3" style="stroke:#038048;stroke-width:1.0;"/><text fill="#000000" font-family="sans-serif" font-size="14" lengthAdjust="spacing" textLength="70" x="140" y="1731.5082">Url : string</text><ellipse cx="131" cy="1744.4584" fill="none" rx="3" ry="3" style="stroke:#038048;stroke-width:1.0;"/><text fill="#000000" font-family="sans-serif" font-size="14" lengthAdjust="spacing" textLength="108" x="140" y="1747.8051">IsFavorite : bool</text><line style="stroke:#181818;stroke-width:0.5;" x1="121" x2="291" y1="1755.1069" y2="1755.1069"/></g><!--class AddEventDto--><g id="elem_AddEventDto"><rect codeLine="111" fill="#F1F1F1" height="227.2656" id="AddEventDto" rx="2.5" ry="2.5" style="stroke:#181818;stroke-width:0.5;" width="145" x="401.5" y="1166.0869"/><ellipse cx="426.4" cy="1182.0869" fill="#ADD1B2" rx="11" ry="11" style="stroke:#181818;stroke-width:1.0;"/><path d="M429.3688,1187.7275 Q428.7906,1188.0244 428.15,1188.165 Q427.5094,1188.3213 426.8063,1188.3213 Q424.3063,1188.3213 422.9781,1186.6806 Q421.6656,1185.0244 421.6656,1181.8994 Q421.6656,1178.7744 422.9781,1177.1181 Q424.3063,1175.4619 426.8063,1175.4619 Q427.5094,1175.4619 428.15,1175.6181 Q428.8063,1175.7744 429.3688,1176.0713 L429.3688,1178.79 Q428.7438,1178.2119 428.15,1177.9463 Q427.5563,1177.665 426.9313,1177.665 Q425.5875,1177.665 424.9,1178.7431 Q424.2125,1179.8056 424.2125,1181.8994 Q424.2125,1183.9931 424.9,1185.0713 Q425.5875,1186.1338 426.9313,1186.1338 Q427.5563,1186.1338 428.15,1185.8681 Q428.7438,1185.5869 429.3688,1185.0088 L429.3688,1187.7275 Z " fill="#000000"/><text fill="#000000" font-family="sans-serif" font-size="14" lengthAdjust="spacing" textLength="91" x="442.6" y="1186.9336">AddEventDto</text><line style="stroke:#181818;stroke-width:0.5;" x1="402.5" x2="545.5" y1="1198.0869" y2="1198.0869"/><ellipse cx="412.5" cy="1211.7353" fill="none" rx="3" ry="3" style="stroke:#038048;stroke-width:1.0;"/><text fill="#000000" font-family="sans-serif" font-size="14" lengthAdjust="spacing" textLength="81" x="421.5" y="1215.082">Title : string</text><ellipse cx="412.5" cy="1228.0322" fill="none" rx="3" ry="3" style="stroke:#038048;stroke-width:1.0;"/><text fill="#000000" font-family="sans-serif" font-size="14" lengthAdjust="spacing" textLength="114" x="421.5" y="1231.3789">Category : string</text><ellipse cx="412.5" cy="1244.3291" fill="none" rx="3" ry="3" style="stroke:#038048;stroke-width:1.0;"/><text fill="#000000" font-family="sans-serif" font-size="14" lengthAdjust="spacing" textLength="119" x="421.5" y="1247.6757">Start : DateTime?</text><ellipse cx="412.5" cy="1260.6259" fill="none" rx="3" ry="3" style="stroke:#038048;stroke-width:1.0;"/><text fill="#000000" font-family="sans-serif" font-size="14" lengthAdjust="spacing" textLength="114" x="421.5" y="1263.9726">End : DateTime?</text><ellipse cx="412.5" cy="1276.9228" fill="none" rx="3" ry="3" style="stroke:#038048;stroke-width:1.0;"/><text fill="#000000" font-family="sans-serif" font-size="14" lengthAdjust="spacing" textLength="97" x="421.5" y="1280.2695">Venue : string</text><ellipse cx="412.5" cy="1293.2197" fill="none" rx="3" ry="3" style="stroke:#038048;stroke-width:1.0;"/><text fill="#000000" font-family="sans-serif" font-size="14" lengthAdjust="spacing" textLength="109" x="421.5" y="1296.5664">Address : string</text><ellipse cx="412.5" cy="1309.5166" fill="none" rx="3" ry="3" style="stroke:#038048;stroke-width:1.0;"/><text fill="#000000" font-family="sans-serif" font-size="14" lengthAdjust="spacing" textLength="77" x="421.5" y="1312.8632">City : string</text><ellipse cx="412.5" cy="1325.8134" fill="none" rx="3" ry="3" style="stroke:#038048;stroke-width:1.0;"/><text fill="#000000" font-family="sans-serif" font-size="14" lengthAdjust="spacing" textLength="88" x="421.5" y="1329.1601">State : string</text><ellipse cx="412.5" cy="1342.1103" fill="none" rx="3" ry="3" style="stroke:#038048;stroke-width:1.0;"/><text fill="#000000" font-family="sans-serif" font-size="14" lengthAdjust="spacing" textLength="74" x="421.5" y="1345.457">Zip : string</text><ellipse cx="412.5" cy="1358.4072" fill="none" rx="3" ry="3" style="stroke:#038048;stroke-width:1.0;"/><text fill="#000000" font-family="sans-serif" font-size="14" lengthAdjust="spacing" textLength="88" x="421.5" y="1361.7539">Desc : string</text><ellipse cx="412.5" cy="1374.7041" fill="none" rx="3" ry="3" style="stroke:#038048;stroke-width:1.0;"/><text fill="#000000" font-family="sans-serif" font-size="14" lengthAdjust="spacing" textLength="70" x="421.5" y="1378.0507">Url : string</text><line style="stroke:#181818;stroke-width:0.5;" x1="402.5" x2="545.5" y1="1385.3525" y2="1385.3525"/></g><!--class Users--><g id="elem_Users"><rect codeLine="134" fill="#F1F1F1" height="80.5938" id="Users" rx="2.5" ry="2.5" style="stroke:#181818;stroke-width:0.5;" width="72" x="627" y="1882.6969"/><ellipse cx="642" cy="1898.6969" fill="#ADD1B2" rx="11" ry="11" style="stroke:#181818;stroke-width:1.0;"/><path d="M644.9688,1904.3375 Q644.3906,1904.6344 643.75,1904.775 Q643.1094,1904.9312 642.4063,1904.9312 Q639.9063,1904.9312 638.5781,1903.2906 Q637.2656,1901.6344 637.2656,1898.5094 Q637.2656,1895.3844 638.5781,1893.7281 Q639.9063,1892.0719 642.4063,1892.0719 Q643.1094,1892.0719 643.75,1892.2281 Q644.4063,1892.3844 644.9688,1892.6812 L644.9688,1895.4 Q644.3438,1894.8219 643.75,1894.5562 Q643.1563,1894.275 642.5313,1894.275 Q641.1875,1894.275 640.5,1895.3531 Q639.8125,1896.4156 639.8125,1898.5094 Q639.8125,1900.6031 640.5,1901.6812 Q641.1875,1902.7437 642.5313,1902.7437 Q643.1563,1902.7437 643.75,1902.4781 Q644.3438,1902.1969 644.9688,1901.6187 L644.9688,1904.3375 Z " fill="#000000"/><text fill="#000000" font-family="sans-serif" font-size="14" lengthAdjust="spacing" textLength="40" x="656" y="1903.5436">Users</text><line style="stroke:#181818;stroke-width:0.5;" x1="628" x2="698" y1="1914.6969" y2="1914.6969"/><ellipse cx="638" cy="1928.3453" fill="none" rx="3" ry="3" style="stroke:#038048;stroke-width:1.0;"/><text fill="#000000" font-family="sans-serif" font-size="14" lengthAdjust="spacing" textLength="44" x="647" y="1931.692">UserId</text><ellipse cx="638" cy="1944.6422" fill="none" rx="3" ry="3" style="stroke:#038048;stroke-width:1.0;"/><text fill="#000000" font-family="sans-serif" font-size="14" lengthAdjust="spacing" textLength="36" x="647" y="1947.9889">Email</text><line style="stroke:#181818;stroke-width:0.5;" x1="628" x2="698" y1="1955.2906" y2="1955.2906"/></g><!--class Events--><g id="elem_Events"><rect codeLine="139" fill="#F1F1F1" height="145.7813" id="Events" rx="2.5" ry="2.5" style="stroke:#181818;stroke-width:0.5;" width="95" x="733.5" y="1850.1069"/><ellipse cx="755.7" cy="1866.1069" fill="#ADD1B2" rx="11" ry="11" style="stroke:#181818;stroke-width:1.0;"/><path d="M758.6688,1871.7475 Q758.0906,1872.0444 757.45,1872.185 Q756.8094,1872.3413 756.1063,1872.3413 Q753.6063,1872.3413 752.2781,1870.7006 Q750.9656,1869.0444 750.9656,1865.9194 Q750.9656,1862.7944 752.2781,1861.1381 Q753.6063,1859.4819 756.1063,1859.4819 Q756.8094,1859.4819 757.45,1859.6381 Q758.1063,1859.7944 758.6688,1860.0913 L758.6688,1862.81 Q758.0438,1862.2319 757.45,1861.9663 Q756.8563,1861.685 756.2313,1861.685 Q754.8875,1861.685 754.2,1862.7631 Q753.5125,1863.8256 753.5125,1865.9194 Q753.5125,1868.0131 754.2,1869.0913 Q754.8875,1870.1538 756.2313,1870.1538 Q756.8563,1870.1538 757.45,1869.8881 Q758.0438,1869.6069 758.6688,1869.0288 L758.6688,1871.7475 Z " fill="#000000"/><text fill="#000000" font-family="sans-serif" font-size="14" lengthAdjust="spacing" textLength="47" x="771.3" y="1870.9536">Events</text><line style="stroke:#181818;stroke-width:0.5;" x1="734.5" x2="827.5" y1="1882.1069" y2="1882.1069"/><ellipse cx="744.5" cy="1895.7553" fill="none" rx="3" ry="3" style="stroke:#038048;stroke-width:1.0;"/><text fill="#000000" font-family="sans-serif" font-size="14" lengthAdjust="spacing" textLength="51" x="753.5" y="1899.102">EventId</text><ellipse cx="744.5" cy="1912.0522" fill="none" rx="3" ry="3" style="stroke:#038048;stroke-width:1.0;"/><text fill="#000000" font-family="sans-serif" font-size="14" lengthAdjust="spacing" textLength="29" x="753.5" y="1915.3989">Title</text><ellipse cx="744.5" cy="1928.3491" fill="none" rx="3" ry="3" style="stroke:#038048;stroke-width:1.0;"/><text fill="#000000" font-family="sans-serif" font-size="14" lengthAdjust="spacing" textLength="66" x="753.5" y="1931.6957">StartTime</text><ellipse cx="744.5" cy="1944.6459" fill="none" rx="3" ry="3" style="stroke:#038048;stroke-width:1.0;"/><text fill="#000000" font-family="sans-serif" font-size="14" lengthAdjust="spacing" textLength="62" x="753.5" y="1947.9926">Category</text><ellipse cx="744.5" cy="1960.9428" fill="none" rx="3" ry="3" style="stroke:#038048;stroke-width:1.0;"/><text fill="#000000" font-family="sans-serif" font-size="14" lengthAdjust="spacing" textLength="55" x="753.5" y="1964.2895">Latitude</text><ellipse cx="744.5" cy="1977.2397" fill="none" rx="3" ry="3" style="stroke:#038048;stroke-width:1.0;"/><text fill="#000000" font-family="sans-serif" font-size="14" lengthAdjust="spacing" textLength="69" x="753.5" y="1980.5864">Longitude</text><line style="stroke:#181818;stroke-width:0.5;" x1="734.5" x2="827.5" y1="1987.8881" y2="1987.8881"/></g><!--class Favorites--><g id="elem_Favorites"><rect codeLine="148" fill="#F1F1F1" height="80.5938" id="Favorites" rx="2.5" ry="2.5" style="stroke:#181818;stroke-width:0.5;" width="94" x="627" y="1568.4369"/><ellipse cx="642" cy="1584.4369" fill="#ADD1B2" rx="11" ry="11" style="stroke:#181818;stroke-width:1.0;"/><path d="M644.9688,1590.0775 Q644.3906,1590.3744 643.75,1590.515 Q643.1094,1590.6712 642.4063,1590.6712 Q639.9063,1590.6712 638.5781,1589.0306 Q637.2656,1587.3744 637.2656,1584.2494 Q637.2656,1581.1244 638.5781,1579.4681 Q639.9063,1577.8119 642.4063,1577.8119 Q643.1094,1577.8119 643.75,1577.9681 Q644.4063,1578.1244 644.9688,1578.4212 L644.9688,1581.14 Q644.3438,1580.5619 643.75,1580.2962 Q643.1563,1580.015 642.5313,1580.015 Q641.1875,1580.015 640.5,1581.0931 Q639.8125,1582.1556 639.8125,1584.2494 Q639.8125,1586.3431 640.5,1587.4212 Q641.1875,1588.4837 642.5313,1588.4837 Q643.1563,1588.4837 643.75,1588.2181 Q644.3438,1587.9369 644.9688,1587.3587 L644.9688,1590.0775 Z " fill="#000000"/><text fill="#000000" font-family="sans-serif" font-size="14" lengthAdjust="spacing" textLength="62" x="656" y="1589.2836">Favorites</text><line style="stroke:#181818;stroke-width:0.5;" x1="628" x2="720" y1="1600.4369" y2="1600.4369"/><ellipse cx="638" cy="1614.0853" fill="none" rx="3" ry="3" style="stroke:#038048;stroke-width:1.0;"/><text fill="#000000" font-family="sans-serif" font-size="14" lengthAdjust="spacing" textLength="44" x="647" y="1617.432">UserId</text><ellipse cx="638" cy="1630.3822" fill="none" rx="3" ry="3" style="stroke:#038048;stroke-width:1.0;"/><text fill="#000000" font-family="sans-serif" font-size="14" lengthAdjust="spacing" textLength="51" x="647" y="1633.7289">EventId</text><line style="stroke:#181818;stroke-width:0.5;" x1="628" x2="720" y1="1641.0306" y2="1641.0306"/></g><!--link start_html to index_html--><g id="link_start_html_index_html"><path codeLine="57" d="M277,191.8369 C277,215.8969 277,237.9469 277,262.0169 " fill="none" id="start_html-to-index_html" style="stroke:#181818;stroke-width:1.0;"/><polygon fill="#181818" points="277,268.0169,281,259.0169,277,263.0169,273,259.0169,277,268.0169" style="stroke:#181818;stroke-width:1.0;"/><text fill="#000000" font-family="sans-serif" font-size="13" lengthAdjust="spacing" textLength="131" x="278" y="234.5438">redirect with params</text></g><!--link index_html to app_js--><g id="link_index_html_app_js"><path codeLine="58" d="M288.16,381.9269 C292.57,404.0069 296.7253,424.833 302.2553,452.533 " fill="none" id="index_html-to-app_js" style="stroke:#181818;stroke-width:1.0;"/><polygon fill="#181818" points="303.43,458.4169,305.5906,448.8079,302.4511,453.5136,297.7454,450.3741,303.43,458.4169" style="stroke:#181818;stroke-width:1.0;"/></g><!--link add_html to app_js--><g id="link_add_html_app_js"><path codeLine="59" d="M412.28,365.7069 C405.66,390.1369 398.2376,417.5953 388.8076,452.4353 " fill="none" id="add_html-to-app_js" style="stroke:#181818;stroke-width:1.0;"/><polygon fill="#181818" points="387.24,458.2269,393.4525,450.5845,388.5463,453.4005,385.7303,448.4944,387.24,458.2269" style="stroke:#181818;stroke-width:1.0;"/><text fill="#000000" font-family="sans-serif" font-size="13" lengthAdjust="spacing" textLength="119" x="399.18" y="424.7338">afterCreateEvent()</text></g><!--link app_js to EventsController--><g id="link_app_js_EventsController"><path codeLine="159" d="M339,816.7469 C339,867.0369 339,912.9269 339,953.0569 " fill="none" id="app_js-to-EventsController" style="stroke:#181818;stroke-width:1.0;"/><polygon fill="#181818" points="339,959.0569,343,950.0569,339,954.0569,335,950.0569,339,959.0569" style="stroke:#181818;stroke-width:1.0;"/><text fill="#000000" font-family="sans-serif" font-size="13" lengthAdjust="spacing" textLength="56" x="340" y="861.3738">REST API</text></g><!--link EventsController to EventRepository--><g id="link_EventsController_EventRepository"><path codeLine="160" d="M299.81,1105.5369 C286.79,1129.5869 274.9276,1151.4811 261.0776,1177.0511 " fill="none" id="EventsController-to-EventRepository" style="stroke:#181818;stroke-width:1.0;"/><polygon fill="#181818" points="258.22,1182.3269,266.0236,1176.3183,260.6014,1177.9304,258.9893,1172.5081,258.22,1182.3269" style="stroke:#181818;stroke-width:1.0;"/></g><!--link EventRepository to EventItem--><g id="link_EventRepository_EventItem"><path codeLine="161" d="M206,1377.5069 C206,1401.6169 206,1422.0569 206,1448.1569 " fill="none" id="EventRepository-to-EventItem" style="stroke:#181818;stroke-width:1.0;"/><polygon fill="#181818" points="206,1454.1569,210,1445.1569,206,1449.1569,202,1445.1569,206,1454.1569" style="stroke:#181818;stroke-width:1.0;"/></g><!--link EventsController to AddEventDto--><g id="link_EventsController_AddEventDto"><path codeLine="162" d="M378.77,1105.5369 C389.2,1124.4869 397.7997,1140.1289 409.0797,1160.6489 " fill="none" id="EventsController-to-AddEventDto" style="stroke:#181818;stroke-width:1.0;"/><polygon fill="#181818" points="411.97,1165.9069,411.1398,1156.0931,409.5614,1161.5253,404.1292,1159.9468,411.97,1165.9069" style="stroke:#181818;stroke-width:1.0;"/></g><!--link EventRepository to Events--><g id="link_EventRepository_Events"><path codeLine="164" d="M348.47,1377.4669 C360.22,1383.3969 372.14,1388.7969 384,1393.3569 C533.42,1450.8269 630.45,1336.6869 739,1454.3569 C837.93,1561.6069 820.2203,1741.6221 799.9103,1843.7521 " fill="none" id="EventRepository-to-Events" style="stroke:#181818;stroke-width:1.0;"/><polygon fill="#181818" points="798.74,1849.6369,804.4186,1841.5899,799.7152,1844.7329,796.5722,1840.0295,798.74,1849.6369" style="stroke:#181818;stroke-width:1.0;"/></g><!--link EventRepository to Favorites--><g id="link_EventRepository_Favorites"><path codeLine="165" d="M353.1,1377.4569 C363.41,1383.1069 373.77,1388.4669 384,1393.3569 C459.82,1429.6369 495.4,1404.4069 563,1454.3569 C603.58,1484.3369 632.5124,1528.2474 651.4924,1562.8174 " fill="none" id="EventRepository-to-Favorites" style="stroke:#181818;stroke-width:1.0;"/><polygon fill="#181818" points="654.38,1568.0769,653.5549,1558.2626,651.9737,1563.694,646.5423,1562.1128,654.38,1568.0769" style="stroke:#181818;stroke-width:1.0;"/></g><!--link EventRepository to Users--><g id="link_EventRepository_Users"><path codeLine="166" d="M274.91,1377.4269 C377.02,1520.7069 560.568,1778.2606 631.358,1877.6006 " fill="none" id="EventRepository-to-Users" style="stroke:#181818;stroke-width:1.0;"/><polygon fill="#181818" points="634.84,1882.4869,632.8745,1872.8361,631.9383,1878.415,626.3595,1877.4788,634.84,1882.4869" style="stroke:#181818;stroke-width:1.0;"/></g><!--link Favorites to Users--><g id="link_Favorites_Users"><path codeLine="168" d="M672.61,1649.2769 C670.5,1709.1769 666.7209,1816.2806 664.6109,1876.2806 " fill="none" id="Favorites-to-Users" style="stroke:#181818;stroke-width:1.0;"/><polygon fill="#181818" points="664.4,1882.2769,668.7138,1873.423,664.5757,1877.28,660.7188,1873.1419,664.4,1882.2769" style="stroke:#181818;stroke-width:1.0;"/></g><!--link Favorites to Events--><g id="link_Favorites_Events"><path codeLine="169" d="M687.55,1649.2769 C704.79,1699.5769 732.9358,1781.7106 754.3058,1844.1006 " fill="none" id="Favorites-to-Events" style="stroke:#181818;stroke-width:1.0;"/><polygon fill="#181818" points="756.25,1849.7769,757.1178,1839.9663,754.6298,1845.0467,749.5495,1842.5587,756.25,1849.7769" style="stroke:#181818;stroke-width:1.0;"/></g><!--SRC=[jLN1RkCs4BthAuYzh8DK-G03RQ78zgxGn0bYfGLw2MXnRBDBaG99sJ6A_VSEISaM5Mysbnf88BuXXpDltWmjjm98hkgwbTmUoNmFqXhoAAZTA5sJb2nQ8KWkg37aOGzwp-6G99_9hp_ueMdnzB0ivylPUxkIXbRVw1R8fuLMqe9aP7AhrS60llf4_asIoj_89OFNbvsj1MA4N1Ehb5XJxRzhsf0A3rCk8I226qiQAa7u9GEqYGxutliqbcexz4aPq-0lQrhhaOfQs2fz91ikRETRKyPRCqIsQd9rTejUXauzUniEWXc_DdGFqVQcUVd7k4m9-KnI_Bd0B90zrPok1HWFeZKbL8YkBbD2jQP7ZneGK5bW1KFOMCtbjiEfhdOblDeO3mdSS-TwIcHRhtqUAQdGDUWxQY_2IiPmJVKtqFV8_PJW_q7ybT90DgsiB5Vo5FuryiejfkuBf2WBgNG0qY2E2yzf3saKWxzW0dxd4Bt30aTm8C6x37Y0Ttox4_Xdxtsq4yv-KN9ayhu61WCszocZ8kiiQ6BYj17CgW6PKu5XKFqNwb8T-XGsU2RNWCKBSN3METofGoP4gFftrpGQiAySEJlUEBqPpf2nhW6IWJ3JzBUXzgTuad6DcP83jpjKjAQrIGOxt84WgUGan3FcT3EEykedNNoRvNzyk8blySFtSBPwl5dEIvme6eQD78gUOwPQ2G4w2F-QV04RA78B97t2h0gB1TqhpItqiYZLTYkWHqyapr00W-NyjL7Q5fKPzfg__0aQPRXrNUtlJibBYzDct3r8dMqMjF8RfwJuYijSS7JGWQUuGqeBfVDMephjFIQtoynHLbt4kASFzwTx2ucn19S1lhcv6IOuiFIfneGCRIafzV4Bg4enYBobhcD3-L49s4zZaWeBTL-Q04JqN9ELQdK5CLRwDoI2Pc0gpHkdzTYGzvCrzkgKN_BQUPdX3lSPOf3i4lmdo1QMj1xTsZNjw4Rth8rliwEJV_Cc1d0QSjiojusf5iTnG9NSNe2VjOXF5wOl2-9hVBBED6ECdjYPLJtH5_XxXwO15x_t7Bt1F47_6pckkZ4ICT1FktU6oomhizjiDV_OTC7Sw9eQ6CoJPsmNqpsrpxwD0nSrFlWZJVVREZsVAO-b5_4UQI0k_TdxQK9TYAExwmDKFCtlih9uMAw-5e-hT_dePhaRws_6wHJzh4gIFHR96zlfm7a49kEHUDhZ9i1b5mFb9Zy-RowQJbHTjFfY9icPppCOO-66_m00]--></g></svg>